<?xml version="1.0" encoding="iso-8859-1"?>
<!-- Generator: Adobe Illustrator 19.0.0, SVG Export Plug-In . SVG Version: 6.00 Build 0)  -->
<svg version="1.1" id="Layer_1" xmlns="http://www.w3.org/2000/svg" xmlns:xlink="http://www.w3.org/1999/xlink" x="0px" y="0px"
	 viewBox="0 0 512.004 512.004" style="enable-background:new 0 0 512.004 512.004;" xml:space="preserve">
<circle style="fill:#D7F3FF;" cx="256.002" cy="256.002" r="256.002"/>
<polygon style="fill:#55C484;" points="356.985,262.156 274.617,274.945 287.406,238.425 330.754,238.425 "/>
<polygon style="fill:#46B779;" points="427.18,285.886 267.086,301.896 267.086,262.156 356.985,262.156 400.949,262.156 "/>
<polygon style="fill:#E2B48F;" points="449.211,285.886 449.211,318.275 269.549,318.275 269.549,285.886 424.749,285.886 "/>
<polygon style="fill:#55C484;" points="223.369,238.425 238.005,276.792 153.79,262.156 180.02,238.425 "/>
<polygon style="fill:#46B779;" points="252.309,262.156 252.309,300.664 83.595,285.886 109.825,262.156 153.79,262.156 "/>
<polygon style="fill:#E2B48F;" points="238.146,285.886 238.146,318.275 61.563,318.275 61.563,285.886 85.607,285.886 "/>
<g>
	<polygon style="fill:#DBAE86;" points="259.698,83.59 251.077,83.59 255.387,29.737 255.387,29.737 	"/>
	<circle style="fill:#DBAE86;" cx="255.386" cy="29.74" r="3.181"/>
</g>
<circle style="fill:#F9DEC7;" cx="255.386" cy="66.685" r="17.139"/>
<path style="fill:#DBAE86;" d="M248.102,66.681c0-7.752,5.15-14.294,12.213-16.412c-1.562-0.468-3.213-0.727-4.926-0.727
	c-9.465,0-17.139,7.673-17.139,17.139s7.673,17.139,17.139,17.139c1.713,0,3.364-0.259,4.926-0.727
	C253.251,80.975,248.102,74.432,248.102,66.681z"/>
<polygon style="fill:#F9D2AF;" points="449.347,396.309 427.18,396.309 275.383,340.072 287.406,313.349 449.211,313.349 
	471.489,313.349 471.489,381.943 "/>
<polygon style="fill:#F9DEC7;" points="286.082,390.152 263.346,390.152 240.609,390.152 240.609,366.585 240.609,340.072 
	275.383,340.072 427.18,340.072 427.18,390.152 399.763,390.152 377.028,390.152 354.291,390.152 331.555,390.152 308.819,390.152 
	"/>
<path style="fill:#FFFFFF;" d="M406.787,135.386c6.404,0,11.588,5.185,11.588,11.588c0,6.404-5.185,11.588-11.588,11.588
	c-3.916,0-68.828,0-73.113,0c-6.404,0-11.601-5.185-11.601-11.588s5.197-11.588,11.601-11.588c0.64,0,1.268,0.062,1.884,0.16
	c-0.012-0.222-0.037-0.456-0.037-0.677c0-13.091,10.603-23.706,23.694-23.706c9.519,0,17.697,5.616,21.477,13.706
	c1.465-0.419,3.017-0.653,4.618-0.653c7.795,0,14.359,5.197,16.465,12.315C403.289,135.805,404.989,135.386,406.787,135.386z"/>
<polygon style="fill:#F9DEC7;" points="287.406,319.715 287.406,347.461 251.077,347.461 251.077,146.728 287.406,146.728 
	287.406,241.928 287.406,266.567 287.406,291.204 "/>
<rect x="264.007" y="155.352" style="fill:#E2B48F;" width="14.778" height="176.103"/>
<g>
	<polygon style="fill:#F9D2AF;" points="287.406,106.089 287.406,146.728 255.387,146.728 255.387,106.089 276.938,106.089 	"/>
	<rect x="255.386" y="83.59" style="fill:#F9D2AF;" width="21.551" height="22.499"/>
	<polygon style="fill:#F9D2AF;" points="61.428,396.72 39.286,381.943 39.286,313.349 61.563,313.349 223.369,313.349 
		229.923,340.072 83.595,396.72 	"/>
	<rect x="255.386" y="66.685" style="fill:#F9D2AF;" width="21.551" height="16.908"/>
</g>
<g>
	<polygon style="fill:#DBAE86;" points="192.581,390.152 171.646,390.152 150.711,390.152 129.775,390.152 108.84,390.152 
		83.595,390.152 83.595,340.072 223.369,340.072 255.387,340.072 255.387,366.585 255.387,390.152 234.452,390.152 213.517,390.152 
			"/>
	<polygon style="fill:#DBAE86;" points="255.387,146.728 255.387,340.072 223.369,340.072 223.369,313.349 223.369,285.886 
		223.369,262.156 223.369,238.425 223.369,146.728 	"/>
</g>
<rect x="231.988" y="155.352" style="fill:#F9DEC7;" width="14.778" height="176.103"/>
<g>
	<polygon style="fill:#DBAE86;" points="255.387,106.089 255.387,146.728 223.369,146.728 223.369,106.089 233.836,106.089 	"/>
	<rect x="233.835" y="83.59" style="fill:#DBAE86;" width="21.551" height="22.499"/>
	<rect x="233.835" y="66.685" style="fill:#DBAE86;" width="21.551" height="16.908"/>
</g>
<path style="fill:#FFFFFF;" d="M128.95,162.738c8.497,0,15.394,6.896,15.394,15.394s-6.896,15.394-15.394,15.394
	c-4.963,0-18.571,0-23.189,0c-7.253,0-13.14-5.887-13.14-13.14c0-7.253,5.887-13.14,13.14-13.14c3.707,0,7.044,1.539,9.433,4.002
	C117.719,166.21,122.928,162.738,128.95,162.738z"/>
<rect x="223.367" y="143.037" style="fill:#B27214;" width="64.037" height="7.389"/>
<g>
	<path style="fill:#4D4D4D;" d="M108.84,396.309c-3.4,0-6.157-2.757-6.157-6.157v-23.567c0-3.4,2.757-6.157,6.157-6.157
		c3.4,0,6.157,2.757,6.157,6.157v23.567C114.998,393.552,112.242,396.309,108.84,396.309z"/>
	<path style="fill:#4D4D4D;" d="M129.775,396.309c-3.4,0-6.157-2.757-6.157-6.157v-23.567c0-3.4,2.757-6.157,6.157-6.157
		s6.157,2.757,6.157,6.157v23.567C135.933,393.552,133.177,396.309,129.775,396.309z"/>
	<path style="fill:#4D4D4D;" d="M150.711,396.309c-3.4,0-6.157-2.757-6.157-6.157v-23.567c0-3.4,2.757-6.157,6.157-6.157
		s6.157,2.757,6.157,6.157v23.567C156.868,393.552,154.112,396.309,150.711,396.309z"/>
	<path style="fill:#4D4D4D;" d="M171.646,396.309c-3.4,0-6.157-2.757-6.157-6.157v-23.567c0-3.4,2.757-6.157,6.157-6.157
		c3.4,0,6.157,2.757,6.157,6.157v23.567C177.804,393.552,175.047,396.309,171.646,396.309z"/>
	<path style="fill:#4D4D4D;" d="M192.581,396.309c-3.4,0-6.157-2.757-6.157-6.157v-23.567c0-3.4,2.757-6.157,6.157-6.157
		c3.4,0,6.157,2.757,6.157,6.157v23.567C198.739,393.552,195.983,396.309,192.581,396.309z"/>
	<path style="fill:#4D4D4D;" d="M213.517,396.309c-3.4,0-6.157-2.757-6.157-6.157v-23.567c0-3.4,2.757-6.157,6.157-6.157
		c3.4,0,6.157,2.757,6.157,6.157v23.567C219.674,393.552,216.918,396.309,213.517,396.309z"/>
	<path style="fill:#4D4D4D;" d="M234.452,396.309c-3.4,0-6.157-2.757-6.157-6.157v-23.567c0-3.4,2.757-6.157,6.157-6.157
		s6.157,2.757,6.157,6.157v23.567C240.609,393.552,237.853,396.309,234.452,396.309z"/>
	<path style="fill:#4D4D4D;" d="M255.387,396.309c-3.4,0-6.157-2.757-6.157-6.157v-23.567c0-3.4,2.757-6.157,6.157-6.157
		s6.157,2.757,6.157,6.157v23.567C261.545,393.552,258.789,396.309,255.387,396.309z"/>
	<path style="fill:#4D4D4D;" d="M276.323,396.309c-3.4,0-6.157-2.757-6.157-6.157v-23.567c0-3.4,2.757-6.157,6.157-6.157
		s6.157,2.757,6.157,6.157v23.567C282.48,393.552,279.724,396.309,276.323,396.309z"/>
	<path style="fill:#4D4D4D;" d="M297.258,396.309c-3.4,0-6.157-2.757-6.157-6.157v-23.567c0-3.4,2.757-6.157,6.157-6.157
		s6.157,2.757,6.157,6.157v23.567C303.415,393.552,300.659,396.309,297.258,396.309z"/>
	<path style="fill:#4D4D4D;" d="M318.193,396.309c-3.4,0-6.157-2.757-6.157-6.157v-23.567c0-3.4,2.757-6.157,6.157-6.157
		c3.4,0,6.157,2.757,6.157,6.157v23.567C324.351,393.552,321.595,396.309,318.193,396.309z"/>
	<path style="fill:#4D4D4D;" d="M339.129,396.309c-3.4,0-6.157-2.757-6.157-6.157v-23.567c0-3.4,2.757-6.157,6.157-6.157
		s6.157,2.757,6.157,6.157v23.567C345.286,393.552,342.53,396.309,339.129,396.309z"/>
	<path style="fill:#4D4D4D;" d="M360.064,396.309c-3.4,0-6.157-2.757-6.157-6.157v-23.567c0-3.4,2.757-6.157,6.157-6.157
		s6.157,2.757,6.157,6.157v23.567C366.221,393.552,363.465,396.309,360.064,396.309z"/>
	<path style="fill:#4D4D4D;" d="M380.999,396.309c-3.4,0-6.157-2.757-6.157-6.157v-23.567c0-3.4,2.757-6.157,6.157-6.157
		c3.4,0,6.157,2.757,6.157,6.157v23.567C387.157,393.552,384.401,396.309,380.999,396.309z"/>
	<path style="fill:#4D4D4D;" d="M401.934,396.309c-3.4,0-6.157-2.757-6.157-6.157v-23.567c0-3.4,2.757-6.157,6.157-6.157
		c3.4,0,6.157,2.757,6.157,6.157v23.567C408.092,393.552,405.336,396.309,401.934,396.309z"/>
	<path style="fill:#4D4D4D;" d="M449.347,396.309c-3.4,0-6.157-2.757-6.157-6.157v-50.081c0-3.4,2.757-6.157,6.157-6.157
		s6.157,2.757,6.157,6.157v50.081C455.504,393.552,452.748,396.309,449.347,396.309z"/>
	<path style="fill:#4D4D4D;" d="M61.428,396.309c-3.4,0-6.157-2.757-6.157-6.157v-50.081c0-3.4,2.757-6.157,6.157-6.157
		s6.157,2.757,6.157,6.157v50.081C67.585,393.552,64.829,396.309,61.428,396.309z"/>
</g>
<path style="fill:#E6E6E6;" d="M478.669,381.943l0.185,0.111C434.877,459.649,351.554,512,256.003,512
	c-95.6,0-178.96-52.4-222.924-130.058h6.207h22.142h22.167h25.246h20.935h20.935h20.935h20.935h20.935h20.935h20.935h20.935h20.935
	h20.935h20.935h20.935h20.935h20.935h25.246h22.167h22.142L478.669,381.943L478.669,381.943z"/>
<path style="fill:#55C484;" d="M280.633,137.696h-18.472v-15.804c0-5.101,4.135-9.236,9.236-9.236l0,0
	c5.101,0,9.236,4.135,9.236,9.236V137.696z"/>
<g>
	<path style="fill:#46B779;" d="M248.614,137.696h-18.472v-15.804c0-5.101,4.135-9.236,9.236-9.236l0,0
		c5.101,0,9.236,4.135,9.236,9.236V137.696z"/>
	<rect x="239.993" y="74.074" style="fill:#46B779;" width="7.799" height="32.019"/>
</g>
<rect x="262.984" y="74.074" style="fill:#55C484;" width="7.799" height="32.019"/>
<g>
</g>
<g>
</g>
<g>
</g>
<g>
</g>
<g>
</g>
<g>
</g>
<g>
</g>
<g>
</g>
<g>
</g>
<g>
</g>
<g>
</g>
<g>
</g>
<g>
</g>
<g>
</g>
<g>
</g>
</svg>
