<svg version="1.1" viewBox="0.0 0.0 1966.0 722.3989501312336" fill="none" stroke="none" stroke-linecap="square" stroke-miterlimit="10" xmlns:xlink="http://www.w3.org/1999/xlink" xmlns="http://www.w3.org/2000/svg"><clipPath id="p.0"><path d="m0 0l1966.0 0l0 722.3989l-1966.0 0l0 -722.3989z" clip-rule="nonzero"/></clipPath><g clip-path="url(#p.0)"><path fill="#000000" fill-opacity="0.0" d="m0 0l1966.0 0l0 722.3989l-1966.0 0z" fill-rule="evenodd"/><path fill="#efefef" d="m0.8215223 727.82153l1965.9843 0l0 -727.81104l-1965.9843 0z" fill-rule="evenodd"/><path stroke="#000000" stroke-width="3.0" stroke-linejoin="round" stroke-linecap="butt" d="m0.8215223 727.82153l1965.9843 0l0 -727.81104l-1965.9843 0z" fill-rule="evenodd"/><path fill="#ffffff" d="m1278.0897 710.82245l572.0945 0l0 -314.70865l-572.0945 0z" fill-rule="evenodd"/><path stroke="#000000" stroke-width="4.0" stroke-linejoin="round" stroke-linecap="butt" d="m1278.0897 710.82245l572.0945 0l0 -314.70865l-572.0945 0z" fill-rule="evenodd"/><path fill="#ffffff" d="m1278.0897 330.19888l572.0945 0l0 -314.70865l-572.0945 0z" fill-rule="evenodd"/><path stroke="#000000" stroke-width="4.0" stroke-linejoin="round" stroke-linecap="butt" d="m1278.0897 330.19888l572.0945 0l0 -314.70865l-572.0945 0z" fill-rule="evenodd"/><path fill="#ffffff" d="m241.72179 565.66406l610.89764 0l0 -336.8819l-610.89764 0z" fill-rule="evenodd"/><path stroke="#ffffff" stroke-width="4.0" stroke-linejoin="bevel" d="m241.72179 565.66406l610.89764 0l0 -336.8819l-610.89764 0z" fill-rule="evenodd"/><path fill="#d9d9d9" d="m1280.671 133.53535l205.54333 0l0 -115.433075l-205.54333 0z" fill-rule="evenodd"/><path stroke="#000000" stroke-width="1.0" stroke-linejoin="round" stroke-linecap="butt" d="m1280.671 133.53535l205.54333 0l0 -115.433075l-205.54333 0z" fill-rule="evenodd"/><path fill="#b7b7b7" d="m1052.8136 193.2523l225.03943 0l0 -179.05513l-225.03943 0z" fill-rule="evenodd"/><path stroke="#000000" stroke-width="4.0" stroke-linejoin="round" stroke-linecap="butt" d="m1052.8136 193.2523l225.03943 0l0 -179.05513l-225.03943 0z" fill-rule="evenodd"/><path fill="#b7b7b7" d="m1180.5583 312.57605l0 103.02365l271.24402 0l0 -103.02365z" fill-rule="evenodd"/><path stroke="#000000" stroke-width="4.0" stroke-linejoin="round" stroke-linecap="butt" d="m1180.5583 312.57605l0 103.02365l271.24402 0l0 -103.02365z" fill-rule="evenodd"/><path fill="#666666" d="m1451.7654 364.802l180.06299 0l0 -52.251984l-180.06299 0z" fill-rule="evenodd"/><path stroke="#000000" stroke-width="3.0" stroke-linejoin="round" stroke-linecap="butt" d="m1451.7654 364.802l180.06299 0l0 -52.251984l-180.06299 0z" fill-rule="evenodd"/><path fill="#666666" d="m1451.7896 414.57358l180.06299 0l0 -49.88977l-180.06299 0z" fill-rule="evenodd"/><path stroke="#000000" stroke-width="3.0" stroke-linejoin="round" stroke-linecap="butt" d="m1451.7896 414.57358l180.06299 0l0 -49.88977l-180.06299 0z" fill-rule="evenodd"/><path fill="#666666" d="m1631.8519 364.802l131.30713 0l0 -52.251984l-131.30713 0z" fill-rule="evenodd"/><path stroke="#000000" stroke-width="3.0" stroke-linejoin="round" stroke-linecap="butt" d="m1631.8519 364.802l131.30713 0l0 -52.251984l-131.30713 0z" fill-rule="evenodd"/><path fill="#666666" d="m1631.8495 414.57358l131.30713 0l0 -49.88977l-131.30713 0z" fill-rule="evenodd"/><path stroke="#000000" stroke-width="3.0" stroke-linejoin="round" stroke-linecap="butt" d="m1631.8495 414.57358l131.30713 0l0 -49.88977l-131.30713 0z" fill-rule="evenodd"/><path fill="#666666" d="m1763.2692 364.802l86.89758 0l0 -52.251984l-86.89758 0z" fill-rule="evenodd"/><path stroke="#000000" stroke-width="3.0" stroke-linejoin="round" stroke-linecap="butt" d="m1763.2692 364.802l86.89758 0l0 -52.251984l-86.89758 0z" fill-rule="evenodd"/><path fill="#666666" d="m1763.2692 414.57358l86.89758 0l0 -49.88977l-86.89758 0z" fill-rule="evenodd"/><path stroke="#000000" stroke-width="3.0" stroke-linejoin="round" stroke-linecap="butt" d="m1763.2692 414.57358l86.89758 0l0 -49.88977l-86.89758 0z" fill-rule="evenodd"/><path fill="#b7b7b7" d="m1052.4287 710.0719l225.0393 0l0 -175.1496l-225.0393 0z" fill-rule="evenodd"/><path stroke="#000000" stroke-width="4.0" stroke-linejoin="round" stroke-linecap="butt" d="m1052.4287 710.0719l225.0393 0l0 -175.1496l-225.0393 0z" fill-rule="evenodd"/><path fill="#d9d9d9" d="m1280.6724 708.7491l205.54333 0l0 -115.433044l-205.54333 0z" fill-rule="evenodd"/><path stroke="#000000" stroke-width="1.0" stroke-linejoin="round" stroke-linecap="butt" d="m1280.6724 708.7491l205.54333 0l0 -115.433044l-205.54333 0z" fill-rule="evenodd"/><path fill="#999999" d="m1753.3589 710.82245l59.40161 0l0 -246.26773l-59.40161 0z" fill-rule="evenodd"/><path stroke="#000000" stroke-width="1.0" stroke-linejoin="round" stroke-linecap="butt" d="m1753.3589 710.82245l59.40161 0l0 -246.26773l-59.40161 0z" fill-rule="evenodd"/><path fill="#999999" d="m1648.5345 710.82245l59.40161 0l0 -246.26773l-59.40161 0z" fill-rule="evenodd"/><path stroke="#000000" stroke-width="1.0" stroke-linejoin="round" stroke-linecap="butt" d="m1648.5345 710.82245l59.40161 0l0 -246.26773l-59.40161 0z" fill-rule="evenodd"/><path fill="#999999" d="m1543.7102 710.82245l59.40161 0l0 -246.26773l-59.40161 0z" fill-rule="evenodd"/><path stroke="#000000" stroke-width="1.0" stroke-linejoin="round" stroke-linecap="butt" d="m1543.7102 710.82245l59.40161 0l0 -246.26773l-59.40161 0z" fill-rule="evenodd"/><path fill="#999999" d="m1753.6384 261.75067l59.118164 0l0 -246.26773l-59.118164 0z" fill-rule="evenodd"/><path stroke="#000000" stroke-width="1.0" stroke-linejoin="round" stroke-linecap="butt" d="m1753.6384 261.75067l59.118164 0l0 -246.26773l-59.118164 0z" fill-rule="evenodd"/><path fill="#999999" d="m1648.5345 261.75177l59.40161 0l0 -246.26772l-59.40161 0z" fill-rule="evenodd"/><path stroke="#000000" stroke-width="1.0" stroke-linejoin="round" stroke-linecap="butt" d="m1648.5345 261.75177l59.40161 0l0 -246.26772l-59.40161 0z" fill-rule="evenodd"/><path fill="#999999" d="m1543.7037 261.75177l59.40161 0l0 -246.26772l-59.40161 0z" fill-rule="evenodd"/><path stroke="#000000" stroke-width="1.0" stroke-linejoin="round" stroke-linecap="butt" d="m1543.7037 261.75177l59.40161 0l0 -246.26772l-59.40161 0z" fill-rule="evenodd"/><path fill="#000000" fill-opacity="0.0" d="m1049.9921 314.25723l1.2598877 -300.44095" fill-rule="evenodd"/><path stroke="#000000" stroke-width="4.0" stroke-linejoin="round" stroke-linecap="butt" d="m1049.9921 314.25723l1.2598877 -300.44095" fill-rule="evenodd"/><path fill="#000000" fill-opacity="0.0" d="m934.1076 311.81628l-0.09448242 -295.55908" fill-rule="evenodd"/><path stroke="#000000" stroke-width="4.0" stroke-linejoin="round" stroke-linecap="butt" d="m934.1076 311.81628l-0.09448242 -295.55908" fill-rule="evenodd"/><path fill="#000000" fill-opacity="0.0" d="m934.4304 711.7349l0.8189087 -301.63782" fill-rule="evenodd"/><path stroke="#000000" stroke-width="4.0" stroke-linejoin="round" stroke-linecap="butt" d="m934.4304 711.7349l0.8189087 -301.63782" fill-rule="evenodd"/><path fill="#000000" fill-opacity="0.0" d="m1051.2957 710.82245l0 -299.81104" fill-rule="evenodd"/><path stroke="#000000" stroke-width="4.0" stroke-linejoin="round" stroke-linecap="butt" d="m1051.2957 710.82245l0 -299.81104" fill-rule="evenodd"/><path fill="#ffffff" d="m1959.5771 131.9685l-75.71655 0l0 232.7244l75.71655 0z" fill-rule="evenodd"/><path stroke="#000000" stroke-width="3.0" stroke-linejoin="round" stroke-linecap="butt" d="m1959.5771 131.9685l-75.71655 0l0 232.7244l75.71655 0z" fill-rule="evenodd"/><path fill="#ffffff" d="m1959.5771 364.80316l-75.71655 0l0 229.57477l75.71655 0z" fill-rule="evenodd"/><path stroke="#000000" stroke-width="3.0" stroke-linejoin="round" stroke-linecap="butt" d="m1959.5771 364.80316l-75.71655 0l0 229.57477l75.71655 0z" fill-rule="evenodd"/><path fill="#000000" d="m1959.5771 14.582677l-75.71655 0l0 115.43307l75.71655 0z" fill-rule="evenodd"/><path stroke="#000000" stroke-width="3.0" stroke-linejoin="round" stroke-linecap="butt" d="m1959.5771 14.582677l-75.71655 0l0 115.43307l75.71655 0z" fill-rule="evenodd"/><path fill="#000000" d="m1959.5771 594.48816l-75.71655 0l0 115.433105l75.71655 0z" fill-rule="evenodd"/><path stroke="#000000" stroke-width="3.0" stroke-linejoin="round" stroke-linecap="butt" d="m1959.5771 594.48816l-75.71655 0l0 115.433105l75.71655 0z" fill-rule="evenodd"/><path fill="#ffffff" d="m81.52331 130.90552l-75.71654 0l0 232.7244l75.71654 0z" fill-rule="evenodd"/><path stroke="#000000" stroke-width="3.0" stroke-linejoin="round" stroke-linecap="butt" d="m81.52331 130.90552l-75.71654 0l0 232.7244l75.71654 0z" fill-rule="evenodd"/><path fill="#ffffff" d="m81.52331 363.74014l-75.71654 0l0 229.5748l75.71654 0z" fill-rule="evenodd"/><path stroke="#000000" stroke-width="3.0" stroke-linejoin="round" stroke-linecap="butt" d="m81.52331 363.74014l-75.71654 0l0 229.5748l75.71654 0z" fill-rule="evenodd"/><path fill="#000000" d="m81.52331 13.519685l-75.71654 0l0 115.433075l75.71654 0z" fill-rule="evenodd"/><path stroke="#000000" stroke-width="3.0" stroke-linejoin="round" stroke-linecap="butt" d="m81.52331 13.519685l-75.71654 0l0 115.433075l75.71654 0z" fill-rule="evenodd"/><path fill="#000000" d="m81.52331 593.4252l-75.71654 0l0 115.433105l75.71654 0z" fill-rule="evenodd"/><path stroke="#000000" stroke-width="3.0" stroke-linejoin="round" stroke-linecap="butt" d="m81.52331 593.4252l-75.71654 0l0 115.433105l75.71654 0z" fill-rule="evenodd"/><path fill="#d9d9d9" d="m481.48294 135.88977l209.00784 0l0 -115.433075l-209.00784 0z" fill-rule="evenodd"/><path stroke="#000000" stroke-width="1.0" stroke-linejoin="round" stroke-linecap="butt" d="m481.48294 135.88977l209.00784 0l0 -115.433075l-209.00784 0z" fill-rule="evenodd"/><path fill="#000000" fill-opacity="0.0" d="m1812.1102 72.56693l-57.826782 0" fill-rule="evenodd"/><path stroke="#000000" stroke-width="1.0" stroke-linejoin="round" stroke-linecap="butt" d="m1812.1102 72.56693l-57.826782 0" fill-rule="evenodd"/><path fill="#000000" fill-opacity="0.0" d="m1812.1102 139.18898l-57.826782 0" fill-rule="evenodd"/><path stroke="#000000" stroke-width="1.0" stroke-linejoin="round" stroke-linecap="butt" d="m1812.1102 139.18898l-57.826782 0" fill-rule="evenodd"/><path fill="#000000" fill-opacity="0.0" d="m1811.1942 204.32808l-57.826782 0" fill-rule="evenodd"/><path stroke="#000000" stroke-width="1.0" stroke-linejoin="round" stroke-linecap="butt" d="m1811.1942 204.32808l-57.826782 0" fill-rule="evenodd"/><path fill="#000000" fill-opacity="0.0" d="m1708.1102 72.56693l-57.826782 0" fill-rule="evenodd"/><path stroke="#000000" stroke-width="1.0" stroke-linejoin="round" stroke-linecap="butt" d="m1708.1102 72.56693l-57.826782 0" fill-rule="evenodd"/><path fill="#000000" fill-opacity="0.0" d="m1708.1102 139.18898l-57.826782 0" fill-rule="evenodd"/><path stroke="#000000" stroke-width="1.0" stroke-linejoin="round" stroke-linecap="butt" d="m1708.1102 139.18898l-57.826782 0" fill-rule="evenodd"/><path fill="#000000" fill-opacity="0.0" d="m1707.1942 204.32808l-57.826782 0" fill-rule="evenodd"/><path stroke="#000000" stroke-width="1.0" stroke-linejoin="round" stroke-linecap="butt" d="m1707.1942 204.32808l-57.826782 0" fill-rule="evenodd"/><path fill="#000000" fill-opacity="0.0" d="m1602.8346 72.73622l-57.82666 0" fill-rule="evenodd"/><path stroke="#000000" stroke-width="1.0" stroke-linejoin="round" stroke-linecap="butt" d="m1602.8346 72.73622l-57.82666 0" fill-rule="evenodd"/><path fill="#000000" fill-opacity="0.0" d="m1602.8346 139.35826l-57.82666 0" fill-rule="evenodd"/><path stroke="#000000" stroke-width="1.0" stroke-linejoin="round" stroke-linecap="butt" d="m1602.8346 139.35826l-57.82666 0" fill-rule="evenodd"/><path fill="#000000" fill-opacity="0.0" d="m1601.9186 204.49738l-57.82666 0" fill-rule="evenodd"/><path stroke="#000000" stroke-width="1.0" stroke-linejoin="round" stroke-linecap="butt" d="m1601.9186 204.49738l-57.82666 0" fill-rule="evenodd"/><path fill="#000000" fill-opacity="0.0" d="m1812.1024 522.8097l-57.826782 0" fill-rule="evenodd"/><path stroke="#000000" stroke-width="1.0" stroke-linejoin="round" stroke-linecap="butt" d="m1812.1024 522.8097l-57.826782 0" fill-rule="evenodd"/><path fill="#000000" fill-opacity="0.0" d="m1812.1024 589.43176l-57.826782 0" fill-rule="evenodd"/><path stroke="#000000" stroke-width="1.0" stroke-linejoin="round" stroke-linecap="butt" d="m1812.1024 589.43176l-57.826782 0" fill-rule="evenodd"/><path fill="#000000" fill-opacity="0.0" d="m1811.1864 654.57086l-57.826782 0" fill-rule="evenodd"/><path stroke="#000000" stroke-width="1.0" stroke-linejoin="round" stroke-linecap="butt" d="m1811.1864 654.57086l-57.826782 0" fill-rule="evenodd"/><path fill="#000000" fill-opacity="0.0" d="m1707.6077 523.5525l-57.826782 0" fill-rule="evenodd"/><path stroke="#000000" stroke-width="1.0" stroke-linejoin="round" stroke-linecap="butt" d="m1707.6077 523.5525l-57.826782 0" fill-rule="evenodd"/><path fill="#000000" fill-opacity="0.0" d="m1707.6077 590.17456l-57.826782 0" fill-rule="evenodd"/><path stroke="#000000" stroke-width="1.0" stroke-linejoin="round" stroke-linecap="butt" d="m1707.6077 590.17456l-57.826782 0" fill-rule="evenodd"/><path fill="#000000" fill-opacity="0.0" d="m1706.6917 655.31366l-57.826782 0" fill-rule="evenodd"/><path stroke="#000000" stroke-width="1.0" stroke-linejoin="round" stroke-linecap="butt" d="m1706.6917 655.31366l-57.826782 0" fill-rule="evenodd"/><path fill="#000000" fill-opacity="0.0" d="m1603.1129 524.2953l-57.826782 0" fill-rule="evenodd"/><path stroke="#000000" stroke-width="1.0" stroke-linejoin="round" stroke-linecap="butt" d="m1603.1129 524.2953l-57.826782 0" fill-rule="evenodd"/><path fill="#000000" fill-opacity="0.0" d="m1603.1129 590.9173l-57.826782 0" fill-rule="evenodd"/><path stroke="#000000" stroke-width="1.0" stroke-linejoin="round" stroke-linecap="butt" d="m1603.1129 590.9173l-57.826782 0" fill-rule="evenodd"/><path fill="#000000" fill-opacity="0.0" d="m1602.1969 656.05646l-57.826782 0" fill-rule="evenodd"/><path stroke="#000000" stroke-width="1.0" stroke-linejoin="round" stroke-linecap="butt" d="m1602.1969 656.05646l-57.826782 0" fill-rule="evenodd"/><path fill="#000000" fill-opacity="0.0" d="m1783.1975 15.48294l0 246.26773" fill-rule="evenodd"/><path stroke="#000000" stroke-width="1.0" stroke-linejoin="round" stroke-linecap="butt" d="m1783.1975 15.48294l0 246.26773" fill-rule="evenodd"/><path fill="#000000" fill-opacity="0.0" d="m1677.9482 16.225721l0 246.26772" fill-rule="evenodd"/><path stroke="#000000" stroke-width="1.0" stroke-linejoin="round" stroke-linecap="butt" d="m1677.9482 16.225721l0 246.26772" fill-rule="evenodd"/><path fill="#000000" fill-opacity="0.0" d="m1573.956 16.225721l0 246.26772" fill-rule="evenodd"/><path stroke="#000000" stroke-width="1.0" stroke-linejoin="round" stroke-linecap="butt" d="m1573.956 16.225721l0 246.26772" fill-rule="evenodd"/><path fill="#000000" fill-opacity="0.0" d="m1782.964 464.5538l0 246.26773" fill-rule="evenodd"/><path stroke="#000000" stroke-width="1.0" stroke-linejoin="round" stroke-linecap="butt" d="m1782.964 464.5538l0 246.26773" fill-rule="evenodd"/><path fill="#000000" fill-opacity="0.0" d="m1677.2579 464.5538l0 246.26773" fill-rule="evenodd"/><path stroke="#000000" stroke-width="1.0" stroke-linejoin="round" stroke-linecap="butt" d="m1677.2579 464.5538l0 246.26773" fill-rule="evenodd"/><path fill="#000000" fill-opacity="0.0" d="m1574.9797 465.13123l0 246.2677" fill-rule="evenodd"/><path stroke="#000000" stroke-width="1.0" stroke-linejoin="round" stroke-linecap="butt" d="m1574.9797 465.13123l0 246.2677" fill-rule="evenodd"/><path fill="#ffffff" d="m216.58005 159.64305l716.5354 0l0 -143.08662l-716.5354 0z" fill-rule="evenodd"/><path stroke="#000000" stroke-width="4.0" stroke-linejoin="round" stroke-linecap="butt" d="m216.58005 159.64305l716.5354 0l0 -143.08662l-716.5354 0z" fill-rule="evenodd"/><path fill="#999999" d="m454.1307 563.52606l52.409454 0l0 -177.88977l-52.409454 0z" fill-rule="evenodd"/><path stroke="#000000" stroke-width="1.0" stroke-linejoin="round" stroke-linecap="butt" d="m454.1307 563.52606l52.409454 0l0 -177.88977l-52.409454 0z" fill-rule="evenodd"/><path fill="#999999" d="m361.60837 563.52606l52.409454 0l0 -177.88977l-52.409454 0z" fill-rule="evenodd"/><path stroke="#000000" stroke-width="1.0" stroke-linejoin="round" stroke-linecap="butt" d="m361.60837 563.52606l52.409454 0l0 -177.88977l-52.409454 0z" fill-rule="evenodd"/><path fill="#999999" d="m268.4895 563.1678l52.409454 0l0 -177.88974l-52.409454 0z" fill-rule="evenodd"/><path stroke="#000000" stroke-width="1.0" stroke-linejoin="round" stroke-linecap="butt" d="m268.4895 563.1678l52.409454 0l0 -177.88974l-52.409454 0z" fill-rule="evenodd"/><path fill="#000000" fill-opacity="0.0" d="m505.1711 474.23404l-51.02362 0" fill-rule="evenodd"/><path stroke="#000000" stroke-width="1.0" stroke-linejoin="round" stroke-linecap="butt" d="m505.1711 474.23404l-51.02362 0" fill-rule="evenodd"/><path fill="#000000" fill-opacity="0.0" d="m505.1711 518.3867l-51.02362 0" fill-rule="evenodd"/><path stroke="#000000" stroke-width="1.0" stroke-linejoin="round" stroke-linecap="butt" d="m505.1711 518.3867l-51.02362 0" fill-rule="evenodd"/><path fill="#000000" fill-opacity="0.0" d="m505.7591 430.08307l-51.02362 0" fill-rule="evenodd"/><path stroke="#000000" stroke-width="1.0" stroke-linejoin="round" stroke-linecap="butt" d="m505.7591 430.08307l-51.02362 0" fill-rule="evenodd"/><path fill="#000000" fill-opacity="0.0" d="m413.34378 474.23404l-51.02362 0" fill-rule="evenodd"/><path stroke="#000000" stroke-width="1.0" stroke-linejoin="round" stroke-linecap="butt" d="m413.34378 474.23404l-51.02362 0" fill-rule="evenodd"/><path fill="#000000" fill-opacity="0.0" d="m413.34378 518.3867l-51.02362 0" fill-rule="evenodd"/><path stroke="#000000" stroke-width="1.0" stroke-linejoin="round" stroke-linecap="butt" d="m413.34378 518.3867l-51.02362 0" fill-rule="evenodd"/><path fill="#000000" fill-opacity="0.0" d="m413.34378 430.79785l-51.02362 0" fill-rule="evenodd"/><path stroke="#000000" stroke-width="1.0" stroke-linejoin="round" stroke-linecap="butt" d="m413.34378 430.79785l-51.02362 0" fill-rule="evenodd"/><path fill="#000000" fill-opacity="0.0" d="m321.51645 475.21298l-51.02362 0" fill-rule="evenodd"/><path stroke="#000000" stroke-width="1.0" stroke-linejoin="round" stroke-linecap="butt" d="m321.51645 475.21298l-51.02362 0" fill-rule="evenodd"/><path fill="#000000" fill-opacity="0.0" d="m321.51645 519.36566l-51.02362 0" fill-rule="evenodd"/><path stroke="#000000" stroke-width="1.0" stroke-linejoin="round" stroke-linecap="butt" d="m321.51645 519.36566l-51.02362 0" fill-rule="evenodd"/><path fill="#000000" fill-opacity="0.0" d="m321.50888 431.05957l-51.02362 0" fill-rule="evenodd"/><path stroke="#000000" stroke-width="1.0" stroke-linejoin="round" stroke-linecap="butt" d="m321.50888 431.05957l-51.02362 0" fill-rule="evenodd"/><path fill="#000000" fill-opacity="0.0" d="m479.21133 384.35773l0 179.74805" fill-rule="evenodd"/><path stroke="#000000" stroke-width="1.0" stroke-linejoin="round" stroke-linecap="butt" d="m479.21133 384.35773l0 179.74805" fill-rule="evenodd"/><path fill="#000000" fill-opacity="0.0" d="m386.31372 384.35773l0 179.74805" fill-rule="evenodd"/><path stroke="#000000" stroke-width="1.0" stroke-linejoin="round" stroke-linecap="butt" d="m386.31372 384.35773l0 179.74805" fill-rule="evenodd"/><path fill="#000000" fill-opacity="0.0" d="m294.70187 384.35773l0 179.74805" fill-rule="evenodd"/><path stroke="#000000" stroke-width="1.0" stroke-linejoin="round" stroke-linecap="butt" d="m294.70187 384.35773l0 179.74805" fill-rule="evenodd"/><path fill="#b7b7b7" d="m81.52231 163.4147l136.31496 0l0 -149.19685l-136.31496 0z" fill-rule="evenodd"/><path stroke="#000000" stroke-width="4.0" stroke-linejoin="round" stroke-linecap="butt" d="m81.52231 163.4147l136.31496 0l0 -149.19685l-136.31496 0z" fill-rule="evenodd"/><path fill="#d9d9d9" d="m137.79527 708.9659l201.03938 0l0 -98.04724l-201.03938 0z" fill-rule="evenodd"/><path stroke="#000000" stroke-width="4.0" stroke-linejoin="round" stroke-linecap="butt" d="m137.79527 708.9659l201.03938 0l0 -98.04724l-201.03938 0z" fill-rule="evenodd"/><path fill="#b7b7b7" d="m159.23355 565.57245l82.48819 0l0 -253.82678l-82.48819 0z" fill-rule="evenodd"/><path stroke="#000000" stroke-width="4.0" stroke-linejoin="round" stroke-linecap="butt" d="m159.23355 565.57245l82.48819 0l0 -253.82678l-82.48819 0z" fill-rule="evenodd"/><path fill="#000000" fill-opacity="0.0" d="m853.895 231.29396l-1.2598267 316.7874" fill-rule="evenodd"/><path stroke="#000000" stroke-width="4.0" stroke-linejoin="round" stroke-linecap="butt" d="m853.895 231.29396l-1.2598267 316.7874" fill-rule="evenodd"/><path fill="#000000" fill-opacity="0.0" d="m240.46457 228.77953l2.5196838 339.40155" fill-rule="evenodd"/><path stroke="#000000" stroke-width="4.0" stroke-linejoin="round" stroke-linecap="butt" d="m240.46457 228.77953l2.5196838 339.40155" fill-rule="evenodd"/><path fill="#000000" fill-opacity="0.0" d="m237.95013 228.77953l618.45667 0" fill-rule="evenodd"/><path stroke="#000000" stroke-width="4.0" stroke-linejoin="round" stroke-linecap="butt" d="m237.95013 228.77953l618.45667 0" fill-rule="evenodd"/><path fill="#000000" fill-opacity="0.0" d="m240.46194 565.66406l306.70865 0" fill-rule="evenodd"/><path stroke="#000000" stroke-width="4.0" stroke-linejoin="round" stroke-linecap="butt" d="m240.46194 565.66406l306.70865 0" fill-rule="evenodd"/><path fill="#ffffff" d="m929.9974 554.67456l-382.83466 0l0 154.17322l382.83466 0z" fill-rule="evenodd"/><path stroke="#ffffff" stroke-width="3.0" stroke-linejoin="round" stroke-linecap="butt" d="m929.9974 554.67456l-382.83466 0l0 154.17322l382.83466 0z" fill-rule="evenodd"/><path fill="#000000" fill-opacity="0.0" d="m544.46716 708.74805l391.14966 0.22045898" fill-rule="evenodd"/><path stroke="#000000" stroke-width="4.0" stroke-linejoin="round" stroke-linecap="butt" d="m544.46716 708.74805l391.14966 0.22045898" fill-rule="evenodd"/><path fill="#000000" fill-opacity="0.0" d="m544.6667 566.92126l0 143.30707" fill-rule="evenodd"/><path stroke="#000000" stroke-width="4.0" stroke-linejoin="round" stroke-linecap="butt" d="m544.6667 566.92126l0 143.30707" fill-rule="evenodd"/><path fill="#000000" fill-opacity="0.0" d="m852.67456 548.08136l81.700745 0" fill-rule="evenodd"/><path stroke="#000000" stroke-width="4.0" stroke-linejoin="round" stroke-linecap="butt" d="m852.67456 548.08136l81.700745 0" fill-rule="evenodd"/><path fill="#d9d9d9" d="m341.13123 709.55383l201.03937 0l0 -98.64569l-201.03937 0z" fill-rule="evenodd"/><path stroke="#000000" stroke-width="4.0" stroke-linejoin="round" stroke-linecap="butt" d="m341.13123 709.55383l201.03937 0l0 -98.64569l-201.03937 0z" fill-rule="evenodd"/></g></svg>