<svg version="1.1" viewBox="0.0 0.0 1966.0 722.3989501312336" fill="none" stroke="none" stroke-linecap="square" stroke-miterlimit="10" xmlns:xlink="http://www.w3.org/1999/xlink" xmlns="http://www.w3.org/2000/svg"><clipPath id="p.0"><path d="m0 0l1966.0 0l0 722.3989l-1966.0 0l0 -722.3989z" clip-rule="nonzero"/></clipPath><g clip-path="url(#p.0)"><path fill="#000000" fill-opacity="0.0" d="m0 0l1966.0 0l0 722.3989l-1966.0 0z" fill-rule="evenodd"/><path fill="#efefef" d="m1966.8058 727.82153l-1965.9843 0l0 -727.81104l1965.9843 0z" fill-rule="evenodd"/><path stroke="#000000" stroke-width="3.0" stroke-linejoin="round" stroke-linecap="butt" d="m1966.8058 727.82153l-1965.9843 0l0 -727.81104l1965.9843 0z" fill-rule="evenodd"/><path fill="#ffffff" d="m1842.345 712.95026l-562.9922 0l0 -314.70868l562.9922 0z" fill-rule="evenodd"/><path stroke="#000000" stroke-width="4.0" stroke-linejoin="round" stroke-linecap="butt" d="m1842.345 712.95026l-562.9922 0l0 -314.70868l562.9922 0z" fill-rule="evenodd"/><path fill="#ffffff" d="m1842.3594 331.24173l-567.0867 0l0 -314.70868l567.0867 0z" fill-rule="evenodd"/><path stroke="#000000" stroke-width="4.0" stroke-linejoin="round" stroke-linecap="butt" d="m1842.3594 331.24173l-567.0867 0l0 -314.70868l567.0867 0z" fill-rule="evenodd"/><path fill="#b7b7b7" d="m1437.6174 308.51236l0 105.35434l-264.81897 0l0 -105.35434z" fill-rule="evenodd"/><path stroke="#000000" stroke-width="4.0" stroke-linejoin="round" stroke-linecap="butt" d="m1437.6174 308.51236l0 105.35434l-264.81897 0l0 -105.35434z" fill-rule="evenodd"/><path fill="#ffffff" d="m689.5376 710.82245l-572.0945 0l0 -314.70865l572.0945 0z" fill-rule="evenodd"/><path stroke="#000000" stroke-width="4.0" stroke-linejoin="round" stroke-linecap="butt" d="m689.5376 710.82245l-572.0945 0l0 -314.70865l572.0945 0z" fill-rule="evenodd"/><path fill="#ffffff" d="m689.5376 330.19888l-572.0945 0l0 -314.70865l572.0945 0z" fill-rule="evenodd"/><path stroke="#000000" stroke-width="4.0" stroke-linejoin="round" stroke-linecap="butt" d="m689.5376 330.19888l-572.0945 0l0 -314.70865l572.0945 0z" fill-rule="evenodd"/><path fill="#666666" d="m1842.3578 359.4634l-86.89758 0l0 -50.92914l86.89758 0z" fill-rule="evenodd"/><path stroke="#000000" stroke-width="3.0" stroke-linejoin="round" stroke-linecap="butt" d="m1842.3578 359.4634l-86.89758 0l0 -50.92914l86.89758 0z" fill-rule="evenodd"/><path fill="#666666" d="m1755.479 359.4634l-135.68494 0l0 -50.92914l135.68494 0z" fill-rule="evenodd"/><path stroke="#000000" stroke-width="3.0" stroke-linejoin="round" stroke-linecap="butt" d="m1755.479 359.4634l-135.68494 0l0 -50.92914l135.68494 0z" fill-rule="evenodd"/><path fill="#666666" d="m1617.7122 358.59436l-180.06299 0l0 -50.078735l180.06299 0z" fill-rule="evenodd"/><path stroke="#000000" stroke-width="3.0" stroke-linejoin="round" stroke-linecap="butt" d="m1617.7122 358.59436l-180.06299 0l0 -50.078735l180.06299 0z" fill-rule="evenodd"/><path fill="#666666" d="m1617.7122 413.86847l-180.06299 0l0 -54.4252l180.06299 0z" fill-rule="evenodd"/><path stroke="#000000" stroke-width="3.0" stroke-linejoin="round" stroke-linecap="butt" d="m1617.7122 413.86847l-180.06299 0l0 -54.4252l180.06299 0z" fill-rule="evenodd"/><path fill="#666666" d="m1756.5266 413.86847l-135.68506 0l0 -54.4252l135.68506 0z" fill-rule="evenodd"/><path stroke="#000000" stroke-width="3.0" stroke-linejoin="round" stroke-linecap="butt" d="m1756.5266 413.86847l-135.68506 0l0 -54.4252l135.68506 0z" fill-rule="evenodd"/><path fill="#666666" d="m1842.3578 413.86847l-86.89758 0l0 -53.543304l86.89758 0z" fill-rule="evenodd"/><path stroke="#000000" stroke-width="3.0" stroke-linejoin="round" stroke-linecap="butt" d="m1842.3578 413.86847l-86.89758 0l0 -53.543304l86.89758 0z" fill-rule="evenodd"/><path fill="#b7b7b7" d="m1275.2755 194.53052l-243.33862 0l0 -179.05511l243.33862 0z" fill-rule="evenodd"/><path stroke="#000000" stroke-width="4.0" stroke-linejoin="round" stroke-linecap="butt" d="m1275.2755 194.53052l-243.33862 0l0 -179.05511l243.33862 0z" fill-rule="evenodd"/><path fill="#999999" d="m1580.9954 711.98047l-59.40161 0l0 -247.43304l59.40161 0z" fill-rule="evenodd"/><path stroke="#000000" stroke-width="1.0" stroke-linejoin="round" stroke-linecap="butt" d="m1580.9954 711.98047l-59.40161 0l0 -247.43304l59.40161 0z" fill-rule="evenodd"/><path fill="#999999" d="m1687.3594 712.2859l-59.40161 0l0 -249.19687l59.40161 0z" fill-rule="evenodd"/><path stroke="#000000" stroke-width="1.0" stroke-linejoin="round" stroke-linecap="butt" d="m1687.3594 712.2859l-59.40161 0l0 -249.19687l59.40161 0z" fill-rule="evenodd"/><path fill="#999999" d="m1795.3 712.84753l-59.40149 0l0 -248.31494l59.40149 0z" fill-rule="evenodd"/><path stroke="#000000" stroke-width="1.0" stroke-linejoin="round" stroke-linecap="butt" d="m1795.3 712.84753l-59.40149 0l0 -248.31494l59.40149 0z" fill-rule="evenodd"/><path fill="#d9d9d9" d="m1478.7979 709.92126l-196.62988 0l0 -115.433105l196.62988 0z" fill-rule="evenodd"/><path stroke="#000000" stroke-width="1.0" stroke-linejoin="round" stroke-linecap="butt" d="m1478.7979 709.92126l-196.62988 0l0 -115.433105l196.62988 0z" fill-rule="evenodd"/><path fill="#b7b7b7" d="m1279.2522 712.95026l-248.47253 0l0 -179.05511l248.47253 0z" fill-rule="evenodd"/><path stroke="#000000" stroke-width="4.0" stroke-linejoin="round" stroke-linecap="butt" d="m1279.2522 712.95026l-248.47253 0l0 -179.05511l248.47253 0z" fill-rule="evenodd"/><path fill="#d9d9d9" d="m686.95624 133.53535l-205.5433 0l0 -115.433075l205.5433 0z" fill-rule="evenodd"/><path stroke="#000000" stroke-width="1.0" stroke-linejoin="round" stroke-linecap="butt" d="m686.95624 133.53535l-205.5433 0l0 -115.433075l205.5433 0z" fill-rule="evenodd"/><path fill="#b7b7b7" d="m914.81366 193.2523l-225.03937 0l0 -179.05513l225.03937 0z" fill-rule="evenodd"/><path stroke="#000000" stroke-width="4.0" stroke-linejoin="round" stroke-linecap="butt" d="m914.81366 193.2523l-225.03937 0l0 -179.05513l225.03937 0z" fill-rule="evenodd"/><path fill="#b7b7b7" d="m787.069 312.57605l0 103.02365l-271.24408 0l0 -103.02365z" fill-rule="evenodd"/><path stroke="#000000" stroke-width="4.0" stroke-linejoin="round" stroke-linecap="butt" d="m787.069 312.57605l0 103.02365l-271.24408 0l0 -103.02365z" fill-rule="evenodd"/><path fill="#666666" d="m515.8619 364.802l-180.06299 0l0 -52.251984l180.06299 0z" fill-rule="evenodd"/><path stroke="#000000" stroke-width="3.0" stroke-linejoin="round" stroke-linecap="butt" d="m515.8619 364.802l-180.06299 0l0 -52.251984l180.06299 0z" fill-rule="evenodd"/><path fill="#666666" d="m515.83777 414.57358l-180.06296 0l0 -49.88977l180.06296 0z" fill-rule="evenodd"/><path stroke="#000000" stroke-width="3.0" stroke-linejoin="round" stroke-linecap="butt" d="m515.83777 414.57358l-180.06296 0l0 -49.88977l180.06296 0z" fill-rule="evenodd"/><path fill="#666666" d="m335.77536 364.802l-131.30708 0l0 -52.251984l131.30708 0z" fill-rule="evenodd"/><path stroke="#000000" stroke-width="3.0" stroke-linejoin="round" stroke-linecap="butt" d="m335.77536 364.802l-131.30708 0l0 -52.251984l131.30708 0z" fill-rule="evenodd"/><path fill="#666666" d="m335.77777 414.57358l-131.30708 0l0 -49.88977l131.30708 0z" fill-rule="evenodd"/><path stroke="#000000" stroke-width="3.0" stroke-linejoin="round" stroke-linecap="butt" d="m335.77777 414.57358l-131.30708 0l0 -49.88977l131.30708 0z" fill-rule="evenodd"/><path fill="#666666" d="m204.35814 364.802l-86.89764 0l0 -52.251984l86.89764 0z" fill-rule="evenodd"/><path stroke="#000000" stroke-width="3.0" stroke-linejoin="round" stroke-linecap="butt" d="m204.35814 364.802l-86.89764 0l0 -52.251984l86.89764 0z" fill-rule="evenodd"/><path fill="#666666" d="m204.35814 414.57358l-86.89764 0l0 -49.88977l86.89764 0z" fill-rule="evenodd"/><path stroke="#000000" stroke-width="3.0" stroke-linejoin="round" stroke-linecap="butt" d="m204.35814 414.57358l-86.89764 0l0 -49.88977l86.89764 0z" fill-rule="evenodd"/><path fill="#b7b7b7" d="m915.1986 710.0719l-225.03937 0l0 -175.1496l225.03937 0z" fill-rule="evenodd"/><path stroke="#000000" stroke-width="4.0" stroke-linejoin="round" stroke-linecap="butt" d="m915.1986 710.0719l-225.03937 0l0 -175.1496l225.03937 0z" fill-rule="evenodd"/><path fill="#d9d9d9" d="m686.9549 708.7491l-205.54327 0l0 -115.433044l205.54327 0z" fill-rule="evenodd"/><path stroke="#000000" stroke-width="1.0" stroke-linejoin="round" stroke-linecap="butt" d="m686.9549 708.7491l-205.54327 0l0 -115.433044l205.54327 0z" fill-rule="evenodd"/><path fill="#999999" d="m214.26842 710.82245l-59.40158 0l0 -246.26773l59.40158 0z" fill-rule="evenodd"/><path stroke="#000000" stroke-width="1.0" stroke-linejoin="round" stroke-linecap="butt" d="m214.26842 710.82245l-59.40158 0l0 -246.26773l59.40158 0z" fill-rule="evenodd"/><path fill="#999999" d="m319.09274 710.82245l-59.40158 0l0 -246.26773l59.40158 0z" fill-rule="evenodd"/><path stroke="#000000" stroke-width="1.0" stroke-linejoin="round" stroke-linecap="butt" d="m319.09274 710.82245l-59.40158 0l0 -246.26773l59.40158 0z" fill-rule="evenodd"/><path fill="#999999" d="m423.91708 710.82245l-59.40158 0l0 -246.26773l59.40158 0z" fill-rule="evenodd"/><path stroke="#000000" stroke-width="1.0" stroke-linejoin="round" stroke-linecap="butt" d="m423.91708 710.82245l-59.40158 0l0 -246.26773l59.40158 0z" fill-rule="evenodd"/><path fill="#999999" d="m1585.6509 260.20474l-59.40149 0l0 -243.68504l59.40149 0z" fill-rule="evenodd"/><path stroke="#000000" stroke-width="1.0" stroke-linejoin="round" stroke-linecap="butt" d="m1585.6509 260.20474l-59.40149 0l0 -243.68504l59.40149 0z" fill-rule="evenodd"/><path fill="#999999" d="m1690.4751 260.20474l-59.40161 0l0 -243.68504l59.40161 0z" fill-rule="evenodd"/><path stroke="#000000" stroke-width="1.0" stroke-linejoin="round" stroke-linecap="butt" d="m1690.4751 260.20474l-59.40161 0l0 -243.68504l59.40161 0z" fill-rule="evenodd"/><path fill="#999999" d="m1795.2992 260.20474l-59.40161 0l0 -243.68504l59.40161 0z" fill-rule="evenodd"/><path stroke="#000000" stroke-width="1.0" stroke-linejoin="round" stroke-linecap="butt" d="m1795.2992 260.20474l-59.40161 0l0 -243.68504l59.40161 0z" fill-rule="evenodd"/><path fill="#999999" d="m213.98882 261.75067l-59.118103 0l0 -246.26773l59.118103 0z" fill-rule="evenodd"/><path stroke="#000000" stroke-width="1.0" stroke-linejoin="round" stroke-linecap="butt" d="m213.98882 261.75067l-59.118103 0l0 -246.26773l59.118103 0z" fill-rule="evenodd"/><path fill="#999999" d="m319.09274 261.75177l-59.40158 0l0 -246.26772l59.40158 0z" fill-rule="evenodd"/><path stroke="#000000" stroke-width="1.0" stroke-linejoin="round" stroke-linecap="butt" d="m319.09274 261.75177l-59.40158 0l0 -246.26772l59.40158 0z" fill-rule="evenodd"/><path fill="#999999" d="m423.9235 261.75177l-59.40158 0l0 -246.26772l59.40158 0z" fill-rule="evenodd"/><path stroke="#000000" stroke-width="1.0" stroke-linejoin="round" stroke-linecap="butt" d="m423.9235 261.75177l-59.40158 0l0 -246.26772l59.40158 0z" fill-rule="evenodd"/><path fill="#000000" fill-opacity="0.0" d="m917.6352 314.25723l-1.2598877 -300.44095" fill-rule="evenodd"/><path stroke="#000000" stroke-width="4.0" stroke-linejoin="round" stroke-linecap="butt" d="m917.6352 314.25723l-1.2598877 -300.44095" fill-rule="evenodd"/><path fill="#000000" fill-opacity="0.0" d="m1030.7664 311.7454l0.09448242 -295.55905" fill-rule="evenodd"/><path stroke="#000000" stroke-width="4.0" stroke-linejoin="round" stroke-linecap="butt" d="m1030.7664 311.7454l0.09448242 -295.55905" fill-rule="evenodd"/><path fill="#000000" fill-opacity="0.0" d="m1029.5092 711.4803l-0.81884766 -301.63776" fill-rule="evenodd"/><path stroke="#000000" stroke-width="4.0" stroke-linejoin="round" stroke-linecap="butt" d="m1029.5092 711.4803l-0.81884766 -301.63776" fill-rule="evenodd"/><path fill="#000000" fill-opacity="0.0" d="m916.3316 710.82245l0 -299.81104" fill-rule="evenodd"/><path stroke="#000000" stroke-width="4.0" stroke-linejoin="round" stroke-linecap="butt" d="m916.3316 710.82245l0 -299.81104" fill-rule="evenodd"/><path fill="#ffffff" d="m8.050204 131.9685l75.71654 0l0 232.7244l-75.71654 0z" fill-rule="evenodd"/><path stroke="#000000" stroke-width="3.0" stroke-linejoin="round" stroke-linecap="butt" d="m8.050204 131.9685l75.71654 0l0 232.7244l-75.71654 0z" fill-rule="evenodd"/><path fill="#ffffff" d="m8.050204 364.80316l75.71654 0l0 229.57477l-75.71654 0z" fill-rule="evenodd"/><path stroke="#000000" stroke-width="3.0" stroke-linejoin="round" stroke-linecap="butt" d="m8.050204 364.80316l75.71654 0l0 229.57477l-75.71654 0z" fill-rule="evenodd"/><path fill="#000000" d="m8.050204 14.582677l75.71654 0l0 115.43307l-75.71654 0z" fill-rule="evenodd"/><path stroke="#000000" stroke-width="3.0" stroke-linejoin="round" stroke-linecap="butt" d="m8.050204 14.582677l75.71654 0l0 115.43307l-75.71654 0z" fill-rule="evenodd"/><path fill="#000000" d="m8.050204 594.48816l75.71654 0l0 115.433105l-75.71654 0z" fill-rule="evenodd"/><path stroke="#000000" stroke-width="3.0" stroke-linejoin="round" stroke-linecap="butt" d="m8.050204 594.48816l75.71654 0l0 115.433105l-75.71654 0z" fill-rule="evenodd"/><path fill="#ffffff" d="m1886.104 130.90552l75.71655 0l0 232.7244l-75.71655 0z" fill-rule="evenodd"/><path stroke="#000000" stroke-width="3.0" stroke-linejoin="round" stroke-linecap="butt" d="m1886.104 130.90552l75.71655 0l0 232.7244l-75.71655 0z" fill-rule="evenodd"/><path fill="#ffffff" d="m1886.104 363.74014l75.71655 0l0 229.5748l-75.71655 0z" fill-rule="evenodd"/><path stroke="#000000" stroke-width="3.0" stroke-linejoin="round" stroke-linecap="butt" d="m1886.104 363.74014l75.71655 0l0 229.5748l-75.71655 0z" fill-rule="evenodd"/><path fill="#000000" d="m1886.104 13.519685l75.71655 0l0 115.433075l-75.71655 0z" fill-rule="evenodd"/><path stroke="#000000" stroke-width="3.0" stroke-linejoin="round" stroke-linecap="butt" d="m1886.104 13.519685l75.71655 0l0 115.433075l-75.71655 0z" fill-rule="evenodd"/><path fill="#000000" d="m1886.104 593.4252l75.71655 0l0 115.433105l-75.71655 0z" fill-rule="evenodd"/><path stroke="#000000" stroke-width="3.0" stroke-linejoin="round" stroke-linecap="butt" d="m1886.104 593.4252l75.71655 0l0 115.433105l-75.71655 0z" fill-rule="evenodd"/><path fill="#d9d9d9" d="m1486.1444 135.88977l-209.00793 0l0 -115.433075l209.00793 0z" fill-rule="evenodd"/><path stroke="#000000" stroke-width="1.0" stroke-linejoin="round" stroke-linecap="butt" d="m1486.1444 135.88977l-209.00793 0l0 -115.433075l209.00793 0z" fill-rule="evenodd"/><path fill="#000000" fill-opacity="0.0" d="m155.51706 72.56693l57.826767 0" fill-rule="evenodd"/><path stroke="#000000" stroke-width="1.0" stroke-linejoin="round" stroke-linecap="butt" d="m155.51706 72.56693l57.826767 0" fill-rule="evenodd"/><path fill="#000000" fill-opacity="0.0" d="m155.51706 139.18898l57.826767 0" fill-rule="evenodd"/><path stroke="#000000" stroke-width="1.0" stroke-linejoin="round" stroke-linecap="butt" d="m155.51706 139.18898l57.826767 0" fill-rule="evenodd"/><path fill="#000000" fill-opacity="0.0" d="m156.43307 204.32808l57.826767 0" fill-rule="evenodd"/><path stroke="#000000" stroke-width="1.0" stroke-linejoin="round" stroke-linecap="butt" d="m156.43307 204.32808l57.826767 0" fill-rule="evenodd"/><path fill="#000000" fill-opacity="0.0" d="m259.51706 72.56693l57.826782 0" fill-rule="evenodd"/><path stroke="#000000" stroke-width="1.0" stroke-linejoin="round" stroke-linecap="butt" d="m259.51706 72.56693l57.826782 0" fill-rule="evenodd"/><path fill="#000000" fill-opacity="0.0" d="m259.51706 139.18898l57.826782 0" fill-rule="evenodd"/><path stroke="#000000" stroke-width="1.0" stroke-linejoin="round" stroke-linecap="butt" d="m259.51706 139.18898l57.826782 0" fill-rule="evenodd"/><path fill="#000000" fill-opacity="0.0" d="m260.43307 204.32808l57.826782 0" fill-rule="evenodd"/><path stroke="#000000" stroke-width="1.0" stroke-linejoin="round" stroke-linecap="butt" d="m260.43307 204.32808l57.826782 0" fill-rule="evenodd"/><path fill="#000000" fill-opacity="0.0" d="m364.79266 72.73622l57.82675 0" fill-rule="evenodd"/><path stroke="#000000" stroke-width="1.0" stroke-linejoin="round" stroke-linecap="butt" d="m364.79266 72.73622l57.82675 0" fill-rule="evenodd"/><path fill="#000000" fill-opacity="0.0" d="m364.79266 139.35826l57.82675 0" fill-rule="evenodd"/><path stroke="#000000" stroke-width="1.0" stroke-linejoin="round" stroke-linecap="butt" d="m364.79266 139.35826l57.82675 0" fill-rule="evenodd"/><path fill="#000000" fill-opacity="0.0" d="m365.70865 204.49738l57.826782 0" fill-rule="evenodd"/><path stroke="#000000" stroke-width="1.0" stroke-linejoin="round" stroke-linecap="butt" d="m365.70865 204.49738l57.826782 0" fill-rule="evenodd"/><path fill="#000000" fill-opacity="0.0" d="m155.52493 522.8097l57.826767 0" fill-rule="evenodd"/><path stroke="#000000" stroke-width="1.0" stroke-linejoin="round" stroke-linecap="butt" d="m155.52493 522.8097l57.826767 0" fill-rule="evenodd"/><path fill="#000000" fill-opacity="0.0" d="m155.52493 589.43176l57.826767 0" fill-rule="evenodd"/><path stroke="#000000" stroke-width="1.0" stroke-linejoin="round" stroke-linecap="butt" d="m155.52493 589.43176l57.826767 0" fill-rule="evenodd"/><path fill="#000000" fill-opacity="0.0" d="m156.44095 654.57086l57.826767 0" fill-rule="evenodd"/><path stroke="#000000" stroke-width="1.0" stroke-linejoin="round" stroke-linecap="butt" d="m156.44095 654.57086l57.826767 0" fill-rule="evenodd"/><path fill="#000000" fill-opacity="0.0" d="m260.01968 523.5525l57.826782 0" fill-rule="evenodd"/><path stroke="#000000" stroke-width="1.0" stroke-linejoin="round" stroke-linecap="butt" d="m260.01968 523.5525l57.826782 0" fill-rule="evenodd"/><path fill="#000000" fill-opacity="0.0" d="m260.01968 590.17456l57.826782 0" fill-rule="evenodd"/><path stroke="#000000" stroke-width="1.0" stroke-linejoin="round" stroke-linecap="butt" d="m260.01968 590.17456l57.826782 0" fill-rule="evenodd"/><path fill="#000000" fill-opacity="0.0" d="m260.9357 655.31366l57.826782 0" fill-rule="evenodd"/><path stroke="#000000" stroke-width="1.0" stroke-linejoin="round" stroke-linecap="butt" d="m260.9357 655.31366l57.826782 0" fill-rule="evenodd"/><path fill="#000000" fill-opacity="0.0" d="m364.51443 524.2953l57.826782 0" fill-rule="evenodd"/><path stroke="#000000" stroke-width="1.0" stroke-linejoin="round" stroke-linecap="butt" d="m364.51443 524.2953l57.826782 0" fill-rule="evenodd"/><path fill="#000000" fill-opacity="0.0" d="m364.51443 590.9173l57.826782 0" fill-rule="evenodd"/><path stroke="#000000" stroke-width="1.0" stroke-linejoin="round" stroke-linecap="butt" d="m364.51443 590.9173l57.826782 0" fill-rule="evenodd"/><path fill="#000000" fill-opacity="0.0" d="m365.43045 656.05646l57.826782 0" fill-rule="evenodd"/><path stroke="#000000" stroke-width="1.0" stroke-linejoin="round" stroke-linecap="butt" d="m365.43045 656.05646l57.826782 0" fill-rule="evenodd"/><path fill="#000000" fill-opacity="0.0" d="m1521.5931 525.0381l57.826782 0" fill-rule="evenodd"/><path stroke="#000000" stroke-width="1.0" stroke-linejoin="round" stroke-linecap="butt" d="m1521.5931 525.0381l57.826782 0" fill-rule="evenodd"/><path fill="#000000" fill-opacity="0.0" d="m1521.5931 591.6601l57.826782 0" fill-rule="evenodd"/><path stroke="#000000" stroke-width="1.0" stroke-linejoin="round" stroke-linecap="butt" d="m1521.5931 591.6601l57.826782 0" fill-rule="evenodd"/><path fill="#000000" fill-opacity="0.0" d="m1522.5092 656.7992l57.826782 0" fill-rule="evenodd"/><path stroke="#000000" stroke-width="1.0" stroke-linejoin="round" stroke-linecap="butt" d="m1522.5092 656.7992l57.826782 0" fill-rule="evenodd"/><path fill="#000000" fill-opacity="0.0" d="m1629.5315 525.7782l57.826782 0" fill-rule="evenodd"/><path stroke="#000000" stroke-width="1.0" stroke-linejoin="round" stroke-linecap="butt" d="m1629.5315 525.7782l57.826782 0" fill-rule="evenodd"/><path fill="#000000" fill-opacity="0.0" d="m1629.5315 591.6601l57.826782 0" fill-rule="evenodd"/><path stroke="#000000" stroke-width="1.0" stroke-linejoin="round" stroke-linecap="butt" d="m1629.5315 591.6601l57.826782 0" fill-rule="evenodd"/><path fill="#000000" fill-opacity="0.0" d="m1629.5315 656.7992l57.826782 0" fill-rule="evenodd"/><path stroke="#000000" stroke-width="1.0" stroke-linejoin="round" stroke-linecap="butt" d="m1629.5315 656.7992l57.826782 0" fill-rule="evenodd"/><path fill="#000000" fill-opacity="0.0" d="m1527.8241 137.87138l57.826782 0" fill-rule="evenodd"/><path stroke="#000000" stroke-width="1.0" stroke-linejoin="round" stroke-linecap="butt" d="m1527.8241 137.87138l57.826782 0" fill-rule="evenodd"/><path fill="#000000" fill-opacity="0.0" d="m1527.8241 198.3622l57.826782 0" fill-rule="evenodd"/><path stroke="#000000" stroke-width="1.0" stroke-linejoin="round" stroke-linecap="butt" d="m1527.8241 198.3622l57.826782 0" fill-rule="evenodd"/><path fill="#000000" fill-opacity="0.0" d="m1529.6956 78.362206l57.826782 0" fill-rule="evenodd"/><path stroke="#000000" stroke-width="1.0" stroke-linejoin="round" stroke-linecap="butt" d="m1529.6956 78.362206l57.826782 0" fill-rule="evenodd"/><path fill="#000000" fill-opacity="0.0" d="m1631.8608 137.87138l57.826782 0" fill-rule="evenodd"/><path stroke="#000000" stroke-width="1.0" stroke-linejoin="round" stroke-linecap="butt" d="m1631.8608 137.87138l57.826782 0" fill-rule="evenodd"/><path fill="#000000" fill-opacity="0.0" d="m1631.8608 198.3622l57.826782 0" fill-rule="evenodd"/><path stroke="#000000" stroke-width="1.0" stroke-linejoin="round" stroke-linecap="butt" d="m1631.8608 198.3622l57.826782 0" fill-rule="evenodd"/><path fill="#000000" fill-opacity="0.0" d="m1631.8608 78.362206l57.826782 0" fill-rule="evenodd"/><path stroke="#000000" stroke-width="1.0" stroke-linejoin="round" stroke-linecap="butt" d="m1631.8608 78.362206l57.826782 0" fill-rule="evenodd"/><path fill="#000000" fill-opacity="0.0" d="m1735.8976 139.2126l57.826782 0" fill-rule="evenodd"/><path stroke="#000000" stroke-width="1.0" stroke-linejoin="round" stroke-linecap="butt" d="m1735.8976 139.2126l57.826782 0" fill-rule="evenodd"/><path fill="#000000" fill-opacity="0.0" d="m1735.8976 199.70341l57.826782 0" fill-rule="evenodd"/><path stroke="#000000" stroke-width="1.0" stroke-linejoin="round" stroke-linecap="butt" d="m1735.8976 199.70341l57.826782 0" fill-rule="evenodd"/><path fill="#000000" fill-opacity="0.0" d="m1735.8976 79.703415l57.826782 0" fill-rule="evenodd"/><path stroke="#000000" stroke-width="1.0" stroke-linejoin="round" stroke-linecap="butt" d="m1735.8976 79.703415l57.826782 0" fill-rule="evenodd"/><path fill="#000000" fill-opacity="0.0" d="m184.42976 15.48294l0 246.26773" fill-rule="evenodd"/><path stroke="#000000" stroke-width="1.0" stroke-linejoin="round" stroke-linecap="butt" d="m184.42976 15.48294l0 246.26773" fill-rule="evenodd"/><path fill="#000000" fill-opacity="0.0" d="m289.6791 16.225721l0 246.26772" fill-rule="evenodd"/><path stroke="#000000" stroke-width="1.0" stroke-linejoin="round" stroke-linecap="butt" d="m289.6791 16.225721l0 246.26772" fill-rule="evenodd"/><path fill="#000000" fill-opacity="0.0" d="m393.67123 16.225721l0 246.26772" fill-rule="evenodd"/><path stroke="#000000" stroke-width="1.0" stroke-linejoin="round" stroke-linecap="butt" d="m393.67123 16.225721l0 246.26772" fill-rule="evenodd"/><path fill="#000000" fill-opacity="0.0" d="m184.66336 464.5538l0 246.26773" fill-rule="evenodd"/><path stroke="#000000" stroke-width="1.0" stroke-linejoin="round" stroke-linecap="butt" d="m184.66336 464.5538l0 246.26773" fill-rule="evenodd"/><path fill="#000000" fill-opacity="0.0" d="m290.3694 464.5538l0 246.26773" fill-rule="evenodd"/><path stroke="#000000" stroke-width="1.0" stroke-linejoin="round" stroke-linecap="butt" d="m290.3694 464.5538l0 246.26773" fill-rule="evenodd"/><path fill="#000000" fill-opacity="0.0" d="m392.6476 465.13123l0 246.2677" fill-rule="evenodd"/><path stroke="#000000" stroke-width="1.0" stroke-linejoin="round" stroke-linecap="butt" d="m392.6476 465.13123l0 246.2677" fill-rule="evenodd"/><path fill="#000000" fill-opacity="0.0" d="m1550.0334 464.5538l0 246.26773" fill-rule="evenodd"/><path stroke="#000000" stroke-width="1.0" stroke-linejoin="round" stroke-linecap="butt" d="m1550.0334 464.5538l0 246.26773" fill-rule="evenodd"/><path fill="#000000" fill-opacity="0.0" d="m1659.0544 464.5538l0 246.26773" fill-rule="evenodd"/><path stroke="#000000" stroke-width="1.0" stroke-linejoin="round" stroke-linecap="butt" d="m1659.0544 464.5538l0 246.26773" fill-rule="evenodd"/><path fill="#000000" fill-opacity="0.0" d="m1764.6423 464.5538l0 246.26773" fill-rule="evenodd"/><path stroke="#000000" stroke-width="1.0" stroke-linejoin="round" stroke-linecap="butt" d="m1764.6423 464.5538l0 246.26773" fill-rule="evenodd"/><path fill="#000000" fill-opacity="0.0" d="m1734.3215 528.7861l57.826782 0" fill-rule="evenodd"/><path stroke="#000000" stroke-width="1.0" stroke-linejoin="round" stroke-linecap="butt" d="m1734.3215 528.7861l57.826782 0" fill-rule="evenodd"/><path fill="#000000" fill-opacity="0.0" d="m1734.3215 594.66797l57.826782 0" fill-rule="evenodd"/><path stroke="#000000" stroke-width="1.0" stroke-linejoin="round" stroke-linecap="butt" d="m1734.3215 594.66797l57.826782 0" fill-rule="evenodd"/><path fill="#000000" fill-opacity="0.0" d="m1734.3215 659.80707l57.826782 0" fill-rule="evenodd"/><path stroke="#000000" stroke-width="1.0" stroke-linejoin="round" stroke-linecap="butt" d="m1734.3215 659.80707l57.826782 0" fill-rule="evenodd"/><path fill="#000000" fill-opacity="0.0" d="m1557.2356 14.737533l0 246.26772" fill-rule="evenodd"/><path stroke="#000000" stroke-width="1.0" stroke-linejoin="round" stroke-linecap="butt" d="m1557.2356 14.737533l0 246.26772" fill-rule="evenodd"/><path fill="#000000" fill-opacity="0.0" d="m1662.4849 14.737533l0 246.26772" fill-rule="evenodd"/><path stroke="#000000" stroke-width="1.0" stroke-linejoin="round" stroke-linecap="butt" d="m1662.4849 14.737533l0 246.26772" fill-rule="evenodd"/><path fill="#000000" fill-opacity="0.0" d="m1763.9625 14.737533l0 246.26772" fill-rule="evenodd"/><path stroke="#000000" stroke-width="1.0" stroke-linejoin="round" stroke-linecap="butt" d="m1763.9625 14.737533l0 246.26772" fill-rule="evenodd"/></g></svg>