<?xml version="1.0" encoding="iso-8859-1"?>
<!-- Generator: Adobe Illustrator 19.0.0, SVG Export Plug-In . SVG Version: 6.00 Build 0)  -->
<svg version="1.1" id="Layer_1" xmlns="http://www.w3.org/2000/svg" xmlns:xlink="http://www.w3.org/1999/xlink" x="0px" y="0px"
	 viewBox="0 0 509.287 509.287" style="enable-background:new 0 0 509.287 509.287;" xml:space="preserve">
<path style="fill:#3EB9E3;" d="M509.287,254.644C509.287,113.928,395.359,0,254.644,0S0,113.928,0,254.644
	c0,43.401,10.85,84.09,29.838,119.693H479.11C498.437,338.734,509.287,298.045,509.287,254.644z"/>
<path style="fill:#29B36F;" d="M29.838,374.336c42.723,80.36,127.491,134.951,224.805,134.951s181.743-54.591,224.805-134.951
	H29.838z"/>
<g>
	<rect x="117.319" y="104.095" style="fill:#F1F3F7;" width="274.988" height="350.94"/>
	<rect x="167.841" y="54.252" style="fill:#F1F3F7;" width="173.266" height="49.844"/>
</g>
<rect x="212.599" y="399.428" style="fill:#4F5565;" width="83.751" height="55.608"/>
<g>
	<rect x="153.261" y="144.106" style="fill:#4B5AA7;" width="36.959" height="45.097"/>
	<rect x="235.995" y="144.106" style="fill:#4B5AA7;" width="36.959" height="45.097"/>
	<rect x="319.068" y="144.106" style="fill:#4B5AA7;" width="36.959" height="45.097"/>
	<rect x="153.261" y="225.483" style="fill:#4B5AA7;" width="36.959" height="45.097"/>
	<rect x="235.995" y="225.483" style="fill:#4B5AA7;" width="36.959" height="45.097"/>
	<rect x="319.068" y="225.483" style="fill:#4B5AA7;" width="36.959" height="45.097"/>
	<rect x="153.261" y="306.861" style="fill:#4B5AA7;" width="36.959" height="45.097"/>
	<rect x="235.995" y="306.861" style="fill:#4B5AA7;" width="36.959" height="45.097"/>
	<rect x="319.068" y="306.861" style="fill:#4B5AA7;" width="36.959" height="45.097"/>
</g>
<ellipse style="fill:#7CC259;" cx="436.387" cy="330.935" rx="32.551" ry="36.62"/>
<polygon style="fill:#611A21;" points="454.358,342.803 449.611,337.717 439.777,347.889 439.777,317.372 432.996,317.372 
	432.996,340.429 422.824,334.665 419.433,340.429 432.996,348.567 432.996,389.256 439.777,389.256 439.777,357.383 "/>
<ellipse style="fill:#7CC259;" cx="70.866" cy="330.935" rx="32.551" ry="36.62"/>
<polygon style="fill:#611A21;" points="88.837,342.803 84.09,337.717 73.918,347.889 73.918,317.372 67.136,317.372 67.136,340.429 
	56.964,334.665 53.574,340.429 67.136,348.567 67.136,389.256 73.918,389.256 73.918,357.383 "/>
<g>
</g>
<g>
</g>
<g>
</g>
<g>
</g>
<g>
</g>
<g>
</g>
<g>
</g>
<g>
</g>
<g>
</g>
<g>
</g>
<g>
</g>
<g>
</g>
<g>
</g>
<g>
</g>
<g>
</g>
</svg>
