<svg version="1.1" viewBox="0.0 0.0 1966.0 722.3989501312336" fill="none" stroke="none" stroke-linecap="square" stroke-miterlimit="10" xmlns:xlink="http://www.w3.org/1999/xlink" xmlns="http://www.w3.org/2000/svg"><clipPath id="p.0"><path d="m0 0l1966.0 0l0 722.3989l-1966.0 0l0 -722.3989z" clip-rule="nonzero"/></clipPath><g clip-path="url(#p.0)"><path fill="#000000" fill-opacity="0.0" d="m0 0l1966.0 0l0 722.3989l-1966.0 0z" fill-rule="evenodd"/><path fill="#efefef" d="m1966.8058 727.82153l-1965.9843 0l0 -727.81104l1965.9843 0z" fill-rule="evenodd"/><path stroke="#000000" stroke-width="3.0" stroke-linejoin="round" stroke-linecap="butt" d="m1966.8058 727.82153l-1965.9843 0l0 -727.81104l1965.9843 0z" fill-rule="evenodd"/><path fill="#d9d9d9" d="m637.31494 710.2231l-516.6299 0l0 -310.4882l516.6299 0z" fill-rule="evenodd"/><path stroke="#000000" stroke-width="4.0" stroke-linejoin="round" stroke-linecap="butt" d="m637.31494 710.2231l-516.6299 0l0 -310.4882l516.6299 0z" fill-rule="evenodd"/><path fill="#ffffff" d="m1842.3439 712.95013l-331.4016 0l0 -310.70868l331.4016 0z" fill-rule="evenodd"/><path stroke="#000000" stroke-width="4.0" stroke-linejoin="round" stroke-linecap="butt" d="m1842.3439 712.95013l-331.4016 0l0 -310.70868l331.4016 0z" fill-rule="evenodd"/><path fill="#ffffff" d="m1842.3596 300.43045l-331.4016 0l0 -283.84253l331.4016 0z" fill-rule="evenodd"/><path stroke="#000000" stroke-width="4.0" stroke-linejoin="round" stroke-linecap="butt" d="m1842.3596 300.43045l-331.4016 0l0 -283.84253l331.4016 0z" fill-rule="evenodd"/><path fill="#ffffff" d="m766.79004 305.45932l-649.3544 0l0 -289.98425l649.3544 0z" fill-rule="evenodd"/><path stroke="#000000" stroke-width="4.0" stroke-linejoin="round" stroke-linecap="butt" d="m766.79004 305.45932l-649.3544 0l0 -289.98425l649.3544 0z" fill-rule="evenodd"/><path fill="#d9d9d9" d="m1182.7428 299.2152l-149.7008 0l0 -107.1181l149.7008 0z" fill-rule="evenodd"/><path stroke="#000000" stroke-width="4.0" stroke-linejoin="round" stroke-linecap="butt" d="m1182.7428 299.2152l-149.7008 0l0 -107.1181l149.7008 0z" fill-rule="evenodd"/><path fill="#434343" d="m218.72441 710.82153l-209.92126 0l0 -114.99213l209.92126 0z" fill-rule="evenodd"/><path stroke="#000000" stroke-width="4.0" stroke-linejoin="round" stroke-linecap="butt" d="m218.72441 710.82153l-209.92126 0l0 -114.99213l209.92126 0z" fill-rule="evenodd"/><path fill="#b7b7b7" d="m1510.9528 712.95013l-480.18896 0l0 -310.70868l480.18896 0z" fill-rule="evenodd"/><path stroke="#000000" stroke-width="4.0" stroke-linejoin="round" stroke-linecap="butt" d="m1510.9528 712.95013l-480.18896 0l0 -310.70868l480.18896 0z" fill-rule="evenodd"/><path fill="#b7b7b7" d="m916.3753 305.45932l-149.57477 0l0 -145.82677l149.57477 0z" fill-rule="evenodd"/><path stroke="#000000" stroke-width="4.0" stroke-linejoin="round" stroke-linecap="butt" d="m916.3753 305.45932l-149.57477 0l0 -145.82677l149.57477 0z" fill-rule="evenodd"/><path fill="#b7b7b7" d="m915.19946 710.07086l-277.88977 0l0 -310.33072l277.88977 0z" fill-rule="evenodd"/><path stroke="#000000" stroke-width="4.0" stroke-linejoin="round" stroke-linecap="butt" d="m915.19946 710.07086l-277.88977 0l0 -310.33072l277.88977 0z" fill-rule="evenodd"/><path fill="#000000" fill-opacity="0.0" d="m916.3779 313.0l0 -297.92126" fill-rule="evenodd"/><path stroke="#000000" stroke-width="4.0" stroke-linejoin="round" stroke-linecap="butt" d="m916.3779 313.0l0 -297.92126" fill-rule="evenodd"/><path fill="#000000" fill-opacity="0.0" d="m1030.7664 306.71652l0.09448242 -290.51968" fill-rule="evenodd"/><path stroke="#000000" stroke-width="4.0" stroke-linejoin="round" stroke-linecap="butt" d="m1030.7664 306.71652l0.09448242 -290.51968" fill-rule="evenodd"/><path fill="#000000" fill-opacity="0.0" d="m1030.7664 712.73755l0 -320.53546" fill-rule="evenodd"/><path stroke="#000000" stroke-width="4.0" stroke-linejoin="round" stroke-linecap="butt" d="m1030.7664 712.73755l0 -320.53546" fill-rule="evenodd"/><path fill="#000000" fill-opacity="0.0" d="m916.3316 710.82245l1.2913208 -319.87402" fill-rule="evenodd"/><path stroke="#000000" stroke-width="4.0" stroke-linejoin="round" stroke-linecap="butt" d="m916.3316 710.82245l1.2913208 -319.87402" fill-rule="evenodd"/><path fill="#ffffff" d="m8.050204 131.9685l75.71654 0l0 232.7244l-75.71654 0z" fill-rule="evenodd"/><path stroke="#000000" stroke-width="3.0" stroke-linejoin="round" stroke-linecap="butt" d="m8.050204 131.9685l75.71654 0l0 232.7244l-75.71654 0z" fill-rule="evenodd"/><path fill="#ffffff" d="m8.050204 364.80316l75.71654 0l0 229.57477l-75.71654 0z" fill-rule="evenodd"/><path stroke="#000000" stroke-width="3.0" stroke-linejoin="round" stroke-linecap="butt" d="m8.050204 364.80316l75.71654 0l0 229.57477l-75.71654 0z" fill-rule="evenodd"/><path fill="#000000" d="m8.050204 14.582677l75.71654 0l0 115.43307l-75.71654 0z" fill-rule="evenodd"/><path stroke="#000000" stroke-width="3.0" stroke-linejoin="round" stroke-linecap="butt" d="m8.050204 14.582677l75.71654 0l0 115.43307l-75.71654 0z" fill-rule="evenodd"/><path fill="#ffffff" d="m1886.104 130.90552l75.71655 0l0 232.7244l-75.71655 0z" fill-rule="evenodd"/><path stroke="#000000" stroke-width="3.0" stroke-linejoin="round" stroke-linecap="butt" d="m1886.104 130.90552l75.71655 0l0 232.7244l-75.71655 0z" fill-rule="evenodd"/><path fill="#ffffff" d="m1886.104 363.74014l75.71655 0l0 229.5748l-75.71655 0z" fill-rule="evenodd"/><path stroke="#000000" stroke-width="3.0" stroke-linejoin="round" stroke-linecap="butt" d="m1886.104 363.74014l75.71655 0l0 229.5748l-75.71655 0z" fill-rule="evenodd"/><path fill="#000000" d="m1886.104 13.519685l75.71655 0l0 115.433075l-75.71655 0z" fill-rule="evenodd"/><path stroke="#000000" stroke-width="3.0" stroke-linejoin="round" stroke-linecap="butt" d="m1886.104 13.519685l75.71655 0l0 115.433075l-75.71655 0z" fill-rule="evenodd"/><path fill="#000000" d="m1886.104 593.4252l75.71655 0l0 115.433105l-75.71655 0z" fill-rule="evenodd"/><path stroke="#000000" stroke-width="3.0" stroke-linejoin="round" stroke-linecap="butt" d="m1886.104 593.4252l75.71655 0l0 115.433105l-75.71655 0z" fill-rule="evenodd"/><path fill="#434343" d="m1507.3911 300.88977l-106.14172 0l0 -109.322845l106.14172 0z" fill-rule="evenodd"/><path stroke="#000000" stroke-width="4.0" stroke-linejoin="round" stroke-linecap="butt" d="m1507.3911 300.88977l-106.14172 0l0 -109.322845l106.14172 0z" fill-rule="evenodd"/><path fill="#d9d9d9" d="m1334.6246 299.2152l-149.7008 0l0 -107.1181l149.7008 0z" fill-rule="evenodd"/><path stroke="#000000" stroke-width="4.0" stroke-linejoin="round" stroke-linecap="butt" d="m1334.6246 299.2152l-149.7008 0l0 -107.1181l149.7008 0z" fill-rule="evenodd"/><path fill="#ffffff" d="m1033.2809 16.225721l474.11023 0l0 175.33858l-474.11023 0z" fill-rule="evenodd"/><path stroke="#000000" stroke-width="3.0" stroke-linejoin="round" stroke-linecap="butt" d="m1033.2809 16.225721l474.11023 0l0 175.33858l-474.11023 0z" fill-rule="evenodd"/><path fill="#666666" d="m1842.3596 79.19423l-106.3938 0l0 -61.102364l106.3938 0z" fill-rule="evenodd"/><path stroke="#000000" stroke-width="3.0" stroke-linejoin="round" stroke-linecap="butt" d="m1842.3596 79.19423l-106.3938 0l0 -61.102364l106.3938 0z" fill-rule="evenodd"/><path fill="#d9d9d9" d="m913.7743 159.6378l-144.37799 0l0 -72.91339l144.37799 0z" fill-rule="evenodd"/><path stroke="#000000" stroke-width="3.0" stroke-linejoin="round" stroke-linecap="butt" d="m913.7743 159.6378l-144.37799 0l0 -72.91339l144.37799 0z" fill-rule="evenodd"/><path fill="#d9d9d9" d="m913.7743 85.47769l-144.37799 0l0 -69.13386l144.37799 0z" fill-rule="evenodd"/><path stroke="#000000" stroke-width="3.0" stroke-linejoin="round" stroke-linecap="butt" d="m913.7743 85.47769l-144.37799 0l0 -69.13386l144.37799 0z" fill-rule="evenodd"/><path fill="#999999" d="m688.34906 140.24286l-57.82672 0l0 -122.20473l57.82672 0z" fill-rule="evenodd"/><path stroke="#000000" stroke-width="1.0" stroke-linejoin="round" stroke-linecap="butt" d="m688.34906 140.24286l-57.82672 0l0 -122.20473l57.82672 0z" fill-rule="evenodd"/><path fill="#000000" fill-opacity="0.0" d="m630.52234 59.104282l56.283447 0" fill-rule="evenodd"/><path stroke="#000000" stroke-width="1.0" stroke-linejoin="round" stroke-linecap="butt" d="m630.52234 59.104282l56.283447 0" fill-rule="evenodd"/><path fill="#000000" fill-opacity="0.0" d="m630.52234 103.4156l56.283447 0" fill-rule="evenodd"/><path stroke="#000000" stroke-width="1.0" stroke-linejoin="round" stroke-linecap="butt" d="m630.52234 103.4156l56.283447 0" fill-rule="evenodd"/><path fill="#000000" fill-opacity="0.0" d="m659.43567 18.038128l-1.6062622 122.77165" fill-rule="evenodd"/><path stroke="#000000" stroke-width="1.0" stroke-linejoin="round" stroke-linecap="butt" d="m659.43567 18.038128l-1.6062622 122.77165" fill-rule="evenodd"/><path fill="#999999" d="m573.2756 139.96875l-57.826782 0l0 -122.20473l57.826782 0z" fill-rule="evenodd"/><path stroke="#000000" stroke-width="1.0" stroke-linejoin="round" stroke-linecap="butt" d="m573.2756 139.96875l-57.826782 0l0 -122.20473l57.826782 0z" fill-rule="evenodd"/><path fill="#000000" fill-opacity="0.0" d="m515.4488 58.830173l56.28351 0" fill-rule="evenodd"/><path stroke="#000000" stroke-width="1.0" stroke-linejoin="round" stroke-linecap="butt" d="m515.4488 58.830173l56.28351 0" fill-rule="evenodd"/><path fill="#000000" fill-opacity="0.0" d="m515.4488 103.141495l56.28351 0" fill-rule="evenodd"/><path stroke="#000000" stroke-width="1.0" stroke-linejoin="round" stroke-linecap="butt" d="m515.4488 103.141495l56.28351 0" fill-rule="evenodd"/><path fill="#000000" fill-opacity="0.0" d="m544.3622 17.764019l-1.6062622 122.77165" fill-rule="evenodd"/><path stroke="#000000" stroke-width="1.0" stroke-linejoin="round" stroke-linecap="butt" d="m544.3622 17.764019l-1.6062622 122.77165" fill-rule="evenodd"/><path fill="#999999" d="m456.4042 139.69464l-57.826782 0l0 -122.20473l57.826782 0z" fill-rule="evenodd"/><path stroke="#000000" stroke-width="1.0" stroke-linejoin="round" stroke-linecap="butt" d="m456.4042 139.69464l-57.826782 0l0 -122.20473l57.826782 0z" fill-rule="evenodd"/><path fill="#000000" fill-opacity="0.0" d="m398.57742 58.556065l56.283478 0" fill-rule="evenodd"/><path stroke="#000000" stroke-width="1.0" stroke-linejoin="round" stroke-linecap="butt" d="m398.57742 58.556065l56.283478 0" fill-rule="evenodd"/><path fill="#000000" fill-opacity="0.0" d="m398.57742 102.867386l56.283478 0" fill-rule="evenodd"/><path stroke="#000000" stroke-width="1.0" stroke-linejoin="round" stroke-linecap="butt" d="m398.57742 102.867386l56.283478 0" fill-rule="evenodd"/><path fill="#000000" fill-opacity="0.0" d="m427.4908 17.48991l-1.6062927 122.77165" fill-rule="evenodd"/><path stroke="#000000" stroke-width="1.0" stroke-linejoin="round" stroke-linecap="butt" d="m427.4908 17.48991l-1.6062927 122.77165" fill-rule="evenodd"/><path fill="#999999" d="m337.66666 139.42053l-57.82675 0l0 -122.20473l57.82675 0z" fill-rule="evenodd"/><path stroke="#000000" stroke-width="1.0" stroke-linejoin="round" stroke-linecap="butt" d="m337.66666 139.42053l-57.82675 0l0 -122.20473l57.82675 0z" fill-rule="evenodd"/><path fill="#000000" fill-opacity="0.0" d="m279.8399 58.281956l56.283447 0" fill-rule="evenodd"/><path stroke="#000000" stroke-width="1.0" stroke-linejoin="round" stroke-linecap="butt" d="m279.8399 58.281956l56.283447 0" fill-rule="evenodd"/><path fill="#000000" fill-opacity="0.0" d="m279.8399 102.59328l56.283447 0" fill-rule="evenodd"/><path stroke="#000000" stroke-width="1.0" stroke-linejoin="round" stroke-linecap="butt" d="m279.8399 102.59328l56.283447 0" fill-rule="evenodd"/><path fill="#000000" fill-opacity="0.0" d="m308.7533 17.215801l-1.6063232 122.77165" fill-rule="evenodd"/><path stroke="#000000" stroke-width="1.0" stroke-linejoin="round" stroke-linecap="butt" d="m308.7533 17.215801l-1.6063232 122.77165" fill-rule="evenodd"/><path fill="#999999" d="m220.37007 140.24045l-57.826767 0l0 -122.20473l57.826767 0z" fill-rule="evenodd"/><path stroke="#000000" stroke-width="1.0" stroke-linejoin="round" stroke-linecap="butt" d="m220.37007 140.24045l-57.826767 0l0 -122.20473l57.826767 0z" fill-rule="evenodd"/><path fill="#000000" fill-opacity="0.0" d="m162.5433 59.10188l56.283463 0" fill-rule="evenodd"/><path stroke="#000000" stroke-width="1.0" stroke-linejoin="round" stroke-linecap="butt" d="m162.5433 59.10188l56.283463 0" fill-rule="evenodd"/><path fill="#000000" fill-opacity="0.0" d="m162.5433 103.4132l56.283463 0" fill-rule="evenodd"/><path stroke="#000000" stroke-width="1.0" stroke-linejoin="round" stroke-linecap="butt" d="m162.5433 103.4132l56.283463 0" fill-rule="evenodd"/><path fill="#000000" fill-opacity="0.0" d="m191.4567 18.035725l-1.606308 122.77165" fill-rule="evenodd"/><path stroke="#000000" stroke-width="1.0" stroke-linejoin="round" stroke-linecap="butt" d="m191.4567 18.035725l-1.606308 122.77165" fill-rule="evenodd"/><path fill="#999999" d="m688.18634 303.0744l-57.826782 0l0 -120.81891l57.826782 0z" fill-rule="evenodd"/><path stroke="#000000" stroke-width="1.0" stroke-linejoin="round" stroke-linecap="butt" d="m688.18634 303.0744l-57.826782 0l0 -120.81891l57.826782 0z" fill-rule="evenodd"/><path fill="#000000" fill-opacity="0.0" d="m630.35956 215.43764l56.28351 0" fill-rule="evenodd"/><path stroke="#000000" stroke-width="1.0" stroke-linejoin="round" stroke-linecap="butt" d="m630.35956 215.43764l56.28351 0" fill-rule="evenodd"/><path fill="#000000" fill-opacity="0.0" d="m630.35956 263.27075l56.28351 0" fill-rule="evenodd"/><path stroke="#000000" stroke-width="1.0" stroke-linejoin="round" stroke-linecap="butt" d="m630.35956 263.27075l56.28351 0" fill-rule="evenodd"/><path fill="#000000" fill-opacity="0.0" d="m659.27295 182.2555l0 120.81891" fill-rule="evenodd"/><path stroke="#000000" stroke-width="1.0" stroke-linejoin="round" stroke-linecap="butt" d="m659.27295 182.2555l0 120.81891" fill-rule="evenodd"/><path fill="#999999" d="m573.11285 302.80344l-57.826782 0l0 -120.81889l57.826782 0z" fill-rule="evenodd"/><path stroke="#000000" stroke-width="1.0" stroke-linejoin="round" stroke-linecap="butt" d="m573.11285 302.80344l-57.826782 0l0 -120.81889l57.826782 0z" fill-rule="evenodd"/><path fill="#000000" fill-opacity="0.0" d="m515.2861 215.14174l56.28351 0" fill-rule="evenodd"/><path stroke="#000000" stroke-width="1.0" stroke-linejoin="round" stroke-linecap="butt" d="m515.2861 215.14174l56.28351 0" fill-rule="evenodd"/><path fill="#000000" fill-opacity="0.0" d="m515.2861 262.97485l56.28351 0" fill-rule="evenodd"/><path stroke="#000000" stroke-width="1.0" stroke-linejoin="round" stroke-linecap="butt" d="m515.2861 262.97485l56.28351 0" fill-rule="evenodd"/><path fill="#000000" fill-opacity="0.0" d="m544.19946 181.98454l-1.6062622 121.38582" fill-rule="evenodd"/><path stroke="#000000" stroke-width="1.0" stroke-linejoin="round" stroke-linecap="butt" d="m544.19946 181.98454l-1.6062622 121.38582" fill-rule="evenodd"/><path fill="#999999" d="m456.24146 302.53247l-57.82675 0l0 -120.81888l57.82675 0z" fill-rule="evenodd"/><path stroke="#000000" stroke-width="1.0" stroke-linejoin="round" stroke-linecap="butt" d="m456.24146 302.53247l-57.82675 0l0 -120.81888l57.82675 0z" fill-rule="evenodd"/><path fill="#000000" fill-opacity="0.0" d="m398.4147 214.84584l56.283447 0" fill-rule="evenodd"/><path stroke="#000000" stroke-width="1.0" stroke-linejoin="round" stroke-linecap="butt" d="m398.4147 214.84584l56.283447 0" fill-rule="evenodd"/><path fill="#000000" fill-opacity="0.0" d="m398.4147 262.67896l56.283447 0" fill-rule="evenodd"/><path stroke="#000000" stroke-width="1.0" stroke-linejoin="round" stroke-linecap="butt" d="m398.4147 262.67896l56.283447 0" fill-rule="evenodd"/><path fill="#000000" fill-opacity="0.0" d="m427.3281 181.7136l-1.6063232 121.38583" fill-rule="evenodd"/><path stroke="#000000" stroke-width="1.0" stroke-linejoin="round" stroke-linecap="butt" d="m427.3281 181.7136l-1.6063232 121.38583" fill-rule="evenodd"/><path fill="#999999" d="m337.50394 302.26154l-57.826782 0l0 -120.81889l57.826782 0z" fill-rule="evenodd"/><path stroke="#000000" stroke-width="1.0" stroke-linejoin="round" stroke-linecap="butt" d="m337.50394 302.26154l-57.826782 0l0 -120.81889l57.826782 0z" fill-rule="evenodd"/><path fill="#000000" fill-opacity="0.0" d="m279.67715 214.54994l56.283478 0" fill-rule="evenodd"/><path stroke="#000000" stroke-width="1.0" stroke-linejoin="round" stroke-linecap="butt" d="m279.67715 214.54994l56.283478 0" fill-rule="evenodd"/><path fill="#000000" fill-opacity="0.0" d="m279.67715 262.3831l56.283478 0" fill-rule="evenodd"/><path stroke="#000000" stroke-width="1.0" stroke-linejoin="round" stroke-linecap="butt" d="m279.67715 262.3831l56.283478 0" fill-rule="evenodd"/><path fill="#000000" fill-opacity="0.0" d="m308.59055 181.44264l-1.6062927 121.38582" fill-rule="evenodd"/><path stroke="#000000" stroke-width="1.0" stroke-linejoin="round" stroke-linecap="butt" d="m308.59055 181.44264l-1.6062927 121.38582" fill-rule="evenodd"/><path fill="#999999" d="m220.20735 303.07202l-57.826767 0l0 -120.81891l57.826767 0z" fill-rule="evenodd"/><path stroke="#000000" stroke-width="1.0" stroke-linejoin="round" stroke-linecap="butt" d="m220.20735 303.07202l-57.826767 0l0 -120.81891l57.826767 0z" fill-rule="evenodd"/><path fill="#000000" fill-opacity="0.0" d="m162.38058 215.43504l56.283463 0" fill-rule="evenodd"/><path stroke="#000000" stroke-width="1.0" stroke-linejoin="round" stroke-linecap="butt" d="m162.38058 215.43504l56.283463 0" fill-rule="evenodd"/><path fill="#000000" fill-opacity="0.0" d="m162.38058 263.26816l56.283463 0" fill-rule="evenodd"/><path stroke="#000000" stroke-width="1.0" stroke-linejoin="round" stroke-linecap="butt" d="m162.38058 263.26816l56.283463 0" fill-rule="evenodd"/><path fill="#000000" fill-opacity="0.0" d="m191.29396 182.25311l-1.6062927 121.38583" fill-rule="evenodd"/><path stroke="#000000" stroke-width="1.0" stroke-linejoin="round" stroke-linecap="butt" d="m191.29396 182.25311l-1.6062927 121.38583" fill-rule="evenodd"/><path fill="#999999" d="m325.57217 509.09973l-203.55905 0l0 -109.35434l203.55905 0z" fill-rule="evenodd"/><path stroke="#000000" stroke-width="4.0" stroke-linejoin="round" stroke-linecap="butt" d="m325.57217 509.09973l-203.55905 0l0 -109.35434l203.55905 0z" fill-rule="evenodd"/><path fill="#999999" d="m1822.3464 546.2521l-57.826782 0l0 -140.91336l57.826782 0z" fill-rule="evenodd"/><path stroke="#000000" stroke-width="1.0" stroke-linejoin="round" stroke-linecap="butt" d="m1822.3464 546.2521l-57.826782 0l0 -140.91336l57.826782 0z" fill-rule="evenodd"/><path fill="#000000" fill-opacity="0.0" d="m1764.5197 448.1003l56.283447 0" fill-rule="evenodd"/><path stroke="#000000" stroke-width="1.0" stroke-linejoin="round" stroke-linecap="butt" d="m1764.5197 448.1003l56.283447 0" fill-rule="evenodd"/><path fill="#000000" fill-opacity="0.0" d="m1764.5197 502.23422l56.283447 0" fill-rule="evenodd"/><path stroke="#000000" stroke-width="1.0" stroke-linejoin="round" stroke-linecap="butt" d="m1764.5197 502.23422l56.283447 0" fill-rule="evenodd"/><path fill="#999999" d="m1707.273 546.252l-57.826782 0l0 -141.19684l57.826782 0z" fill-rule="evenodd"/><path stroke="#000000" stroke-width="1.0" stroke-linejoin="round" stroke-linecap="butt" d="m1707.273 546.252l-57.826782 0l0 -141.19684l57.826782 0z" fill-rule="evenodd"/><path fill="#000000" fill-opacity="0.0" d="m1649.4462 447.8149l56.283447 0" fill-rule="evenodd"/><path stroke="#000000" stroke-width="1.0" stroke-linejoin="round" stroke-linecap="butt" d="m1649.4462 447.8149l56.283447 0" fill-rule="evenodd"/><path fill="#000000" fill-opacity="0.0" d="m1649.4462 501.94882l56.283447 0" fill-rule="evenodd"/><path stroke="#000000" stroke-width="1.0" stroke-linejoin="round" stroke-linecap="butt" d="m1649.4462 501.94882l56.283447 0" fill-rule="evenodd"/><path fill="#000000" fill-opacity="0.0" d="m1678.3596 405.05518l0 141.19684" fill-rule="evenodd"/><path stroke="#000000" stroke-width="1.0" stroke-linejoin="round" stroke-linecap="butt" d="m1678.3596 405.05518l0 141.19684" fill-rule="evenodd"/><path fill="#999999" d="m1590.4016 546.25195l-57.826782 0l0 -141.48032l57.826782 0z" fill-rule="evenodd"/><path stroke="#000000" stroke-width="1.0" stroke-linejoin="round" stroke-linecap="butt" d="m1590.4016 546.25195l-57.826782 0l0 -141.48032l57.826782 0z" fill-rule="evenodd"/><path fill="#000000" fill-opacity="0.0" d="m1532.5748 447.52954l56.283447 0" fill-rule="evenodd"/><path stroke="#000000" stroke-width="1.0" stroke-linejoin="round" stroke-linecap="butt" d="m1532.5748 447.52954l56.283447 0" fill-rule="evenodd"/><path fill="#000000" fill-opacity="0.0" d="m1532.5748 501.66345l56.283447 0" fill-rule="evenodd"/><path stroke="#000000" stroke-width="1.0" stroke-linejoin="round" stroke-linecap="butt" d="m1532.5748 501.66345l56.283447 0" fill-rule="evenodd"/><path fill="#000000" fill-opacity="0.0" d="m1561.4882 404.77164l0 141.48032" fill-rule="evenodd"/><path stroke="#000000" stroke-width="1.0" stroke-linejoin="round" stroke-linecap="butt" d="m1561.4882 404.77164l0 141.48032" fill-rule="evenodd"/><path fill="#999999" d="m1823.2441 711.13385l-57.826782 0l0 -108.22046l57.826782 0z" fill-rule="evenodd"/><path stroke="#000000" stroke-width="1.0" stroke-linejoin="round" stroke-linecap="butt" d="m1823.2441 711.13385l-57.826782 0l0 -108.22046l57.826782 0z" fill-rule="evenodd"/><path fill="#000000" fill-opacity="0.0" d="m1765.4174 659.4177l56.283447 0" fill-rule="evenodd"/><path stroke="#000000" stroke-width="1.0" stroke-linejoin="round" stroke-linecap="butt" d="m1765.4174 659.4177l56.283447 0" fill-rule="evenodd"/><path fill="#000000" fill-opacity="0.0" d="m1794.3307 602.9134l0 108.22046" fill-rule="evenodd"/><path stroke="#000000" stroke-width="1.0" stroke-linejoin="round" stroke-linecap="butt" d="m1794.3307 602.9134l0 108.22046" fill-rule="evenodd"/><path fill="#999999" d="m1708.1707 711.13385l-57.826782 0l0 -108.25195l57.826782 0z" fill-rule="evenodd"/><path stroke="#000000" stroke-width="1.0" stroke-linejoin="round" stroke-linecap="butt" d="m1708.1707 711.13385l-57.826782 0l0 -108.25195l57.826782 0z" fill-rule="evenodd"/><path fill="#000000" fill-opacity="0.0" d="m1650.3439 659.1097l56.283447 0" fill-rule="evenodd"/><path stroke="#000000" stroke-width="1.0" stroke-linejoin="round" stroke-linecap="butt" d="m1650.3439 659.1097l56.283447 0" fill-rule="evenodd"/><path fill="#000000" fill-opacity="0.0" d="m1679.2572 602.8819l0 108.25195" fill-rule="evenodd"/><path stroke="#000000" stroke-width="1.0" stroke-linejoin="round" stroke-linecap="butt" d="m1679.2572 602.8819l0 108.25195" fill-rule="evenodd"/><path fill="#999999" d="m1591.2992 711.13385l-57.826782 0l0 -108.25195l57.826782 0z" fill-rule="evenodd"/><path stroke="#000000" stroke-width="1.0" stroke-linejoin="round" stroke-linecap="butt" d="m1591.2992 711.13385l-57.826782 0l0 -108.25195l57.826782 0z" fill-rule="evenodd"/><path fill="#000000" fill-opacity="0.0" d="m1533.4724 658.80164l56.283447 0" fill-rule="evenodd"/><path stroke="#000000" stroke-width="1.0" stroke-linejoin="round" stroke-linecap="butt" d="m1533.4724 658.80164l56.283447 0" fill-rule="evenodd"/><path fill="#000000" fill-opacity="0.0" d="m1562.3859 602.8819l0 108.25195" fill-rule="evenodd"/><path stroke="#000000" stroke-width="1.0" stroke-linejoin="round" stroke-linecap="butt" d="m1562.3859 602.8819l0 108.25195" fill-rule="evenodd"/><path fill="#000000" fill-opacity="0.0" d="m1793.4331 404.7718l0 141.48029" fill-rule="evenodd"/><path stroke="#000000" stroke-width="1.0" stroke-linejoin="round" stroke-linecap="butt" d="m1793.4331 404.7718l0 141.48029" fill-rule="evenodd"/><path fill="#999999" d="m1703.8398 147.67313l-57.82666 0l0 -130.80315l57.82666 0z" fill-rule="evenodd"/><path stroke="#000000" stroke-width="1.0" stroke-linejoin="round" stroke-linecap="butt" d="m1703.8398 147.67313l-57.82666 0l0 -130.80315l57.82666 0z" fill-rule="evenodd"/><path fill="#000000" fill-opacity="0.0" d="m1646.0132 56.473763l56.283447 0" fill-rule="evenodd"/><path stroke="#000000" stroke-width="1.0" stroke-linejoin="round" stroke-linecap="butt" d="m1646.0132 56.473763l56.283447 0" fill-rule="evenodd"/><path fill="#000000" fill-opacity="0.0" d="m1646.0132 106.627396l56.283447 0" fill-rule="evenodd"/><path stroke="#000000" stroke-width="1.0" stroke-linejoin="round" stroke-linecap="butt" d="m1646.0132 106.627396l56.283447 0" fill-rule="evenodd"/><path fill="#000000" fill-opacity="0.0" d="m1674.9265 16.869974l0 130.80315" fill-rule="evenodd"/><path stroke="#000000" stroke-width="1.0" stroke-linejoin="round" stroke-linecap="butt" d="m1674.9265 16.869974l0 130.80315" fill-rule="evenodd"/><path fill="#999999" d="m1586.9685 147.67305l-57.826782 0l0 -131.08661l57.826782 0z" fill-rule="evenodd"/><path stroke="#000000" stroke-width="1.0" stroke-linejoin="round" stroke-linecap="butt" d="m1586.9685 147.67305l-57.826782 0l0 -131.08661l57.826782 0z" fill-rule="evenodd"/><path fill="#000000" fill-opacity="0.0" d="m1529.1417 56.209362l56.283447 0" fill-rule="evenodd"/><path stroke="#000000" stroke-width="1.0" stroke-linejoin="round" stroke-linecap="butt" d="m1529.1417 56.209362l56.283447 0" fill-rule="evenodd"/><path fill="#000000" fill-opacity="0.0" d="m1529.1417 106.36299l56.283447 0" fill-rule="evenodd"/><path stroke="#000000" stroke-width="1.0" stroke-linejoin="round" stroke-linecap="butt" d="m1529.1417 106.36299l56.283447 0" fill-rule="evenodd"/><path fill="#000000" fill-opacity="0.0" d="m1558.0552 16.586437l0 131.08661" fill-rule="evenodd"/><path stroke="#000000" stroke-width="1.0" stroke-linejoin="round" stroke-linecap="butt" d="m1558.0552 16.586437l0 131.08661" fill-rule="evenodd"/><path fill="#999999" d="m1819.811 300.43176l-57.826782 0l0 -100.25198l57.826782 0z" fill-rule="evenodd"/><path stroke="#000000" stroke-width="1.0" stroke-linejoin="round" stroke-linecap="butt" d="m1819.811 300.43176l-57.826782 0l0 -100.25198l57.826782 0z" fill-rule="evenodd"/><path fill="#000000" fill-opacity="0.0" d="m1761.9843 252.51814l56.283447 0" fill-rule="evenodd"/><path stroke="#000000" stroke-width="1.0" stroke-linejoin="round" stroke-linecap="butt" d="m1761.9843 252.51814l56.283447 0" fill-rule="evenodd"/><path fill="#000000" fill-opacity="0.0" d="m1790.8976 200.17978l0 100.25198" fill-rule="evenodd"/><path stroke="#000000" stroke-width="1.0" stroke-linejoin="round" stroke-linecap="butt" d="m1790.8976 200.17978l0 100.25198" fill-rule="evenodd"/><path fill="#999999" d="m1703.8373 300.19684l-57.826782 0l0 -100.28345l57.826782 0z" fill-rule="evenodd"/><path stroke="#000000" stroke-width="1.0" stroke-linejoin="round" stroke-linecap="butt" d="m1703.8373 300.19684l-57.826782 0l0 -100.28345l57.826782 0z" fill-rule="evenodd"/><path fill="#000000" fill-opacity="0.0" d="m1646.0105 251.99782l56.283447 0" fill-rule="evenodd"/><path stroke="#000000" stroke-width="1.0" stroke-linejoin="round" stroke-linecap="butt" d="m1646.0105 251.99782l56.283447 0" fill-rule="evenodd"/><path fill="#000000" fill-opacity="0.0" d="m1674.9238 199.91339l0 100.28345" fill-rule="evenodd"/><path stroke="#000000" stroke-width="1.0" stroke-linejoin="round" stroke-linecap="butt" d="m1674.9238 199.91339l0 100.28345" fill-rule="evenodd"/><path fill="#999999" d="m1587.8661 300.43176l-57.82666 0l0 -100.28348l57.82666 0z" fill-rule="evenodd"/><path stroke="#000000" stroke-width="1.0" stroke-linejoin="round" stroke-linecap="butt" d="m1587.8661 300.43176l-57.82666 0l0 -100.28348l57.82666 0z" fill-rule="evenodd"/><path fill="#000000" fill-opacity="0.0" d="m1530.0394 251.94731l56.283447 0" fill-rule="evenodd"/><path stroke="#000000" stroke-width="1.0" stroke-linejoin="round" stroke-linecap="butt" d="m1530.0394 251.94731l56.283447 0" fill-rule="evenodd"/><path fill="#000000" fill-opacity="0.0" d="m1558.9528 200.14828l0 100.28348" fill-rule="evenodd"/><path stroke="#000000" stroke-width="1.0" stroke-linejoin="round" stroke-linecap="butt" d="m1558.9528 200.14828l0 100.28348" fill-rule="evenodd"/><path fill="#999999" d="m1353.3898 89.072014l-55.4646 0l0 -72.72441l55.4646 0z" fill-rule="evenodd"/><path stroke="#000000" stroke-width="1.0" stroke-linejoin="round" stroke-linecap="butt" d="m1353.3898 89.072014l-55.4646 0l0 -72.72441l55.4646 0z" fill-rule="evenodd"/><path fill="#000000" fill-opacity="0.0" d="m1297.9343 54.3231l53.984253 0" fill-rule="evenodd"/><path stroke="#000000" stroke-width="1.0" stroke-linejoin="round" stroke-linecap="butt" d="m1297.9343 54.3231l53.984253 0" fill-rule="evenodd"/><path fill="#000000" fill-opacity="0.0" d="m1325.6575 16.347603l0 72.72441" fill-rule="evenodd"/><path stroke="#000000" stroke-width="1.0" stroke-linejoin="round" stroke-linecap="butt" d="m1325.6575 16.347603l0 72.72441" fill-rule="evenodd"/><path fill="#999999" d="m1234.1719 88.90165l-55.4646 0l0 -72.72441l55.4646 0z" fill-rule="evenodd"/><path stroke="#000000" stroke-width="1.0" stroke-linejoin="round" stroke-linecap="butt" d="m1234.1719 88.90165l-55.4646 0l0 -72.72441l55.4646 0z" fill-rule="evenodd"/><path fill="#000000" fill-opacity="0.0" d="m1178.7164 53.945744l53.984253 0" fill-rule="evenodd"/><path stroke="#000000" stroke-width="1.0" stroke-linejoin="round" stroke-linecap="butt" d="m1178.7164 53.945744l53.984253 0" fill-rule="evenodd"/><path fill="#000000" fill-opacity="0.0" d="m1206.4396 16.17724l0 72.72441" fill-rule="evenodd"/><path stroke="#000000" stroke-width="1.0" stroke-linejoin="round" stroke-linecap="butt" d="m1206.4396 16.17724l0 72.72441" fill-rule="evenodd"/><path fill="#999999" d="m1122.9564 89.072014l-55.464478 0l0 -72.72441l55.464478 0z" fill-rule="evenodd"/><path stroke="#000000" stroke-width="1.0" stroke-linejoin="round" stroke-linecap="butt" d="m1122.9564 89.072014l-55.464478 0l0 -72.72441l55.464478 0z" fill-rule="evenodd"/><path fill="#000000" fill-opacity="0.0" d="m1067.5011 53.90911l53.984253 0" fill-rule="evenodd"/><path stroke="#000000" stroke-width="1.0" stroke-linejoin="round" stroke-linecap="butt" d="m1067.5011 53.90911l53.984253 0" fill-rule="evenodd"/><path fill="#000000" fill-opacity="0.0" d="m1095.2242 16.3476l0 72.72441" fill-rule="evenodd"/><path stroke="#000000" stroke-width="1.0" stroke-linejoin="round" stroke-linecap="butt" d="m1095.2242 16.3476l0 72.72441" fill-rule="evenodd"/><path fill="#999999" d="m1353.3754 191.01802l-55.433105 0l0 -68.944885l55.433105 0z" fill-rule="evenodd"/><path stroke="#000000" stroke-width="1.0" stroke-linejoin="round" stroke-linecap="butt" d="m1353.3754 191.01802l-55.433105 0l0 -68.944885l55.433105 0z" fill-rule="evenodd"/><path fill="#000000" fill-opacity="0.0" d="m1297.9197 158.06827l53.95276 0" fill-rule="evenodd"/><path stroke="#000000" stroke-width="1.0" stroke-linejoin="round" stroke-linecap="butt" d="m1297.9197 158.06827l53.95276 0" fill-rule="evenodd"/><path fill="#000000" fill-opacity="0.0" d="m1325.6588 122.073135l0 68.944885" fill-rule="evenodd"/><path stroke="#000000" stroke-width="1.0" stroke-linejoin="round" stroke-linecap="butt" d="m1325.6588 122.073135l0 68.944885" fill-rule="evenodd"/><path fill="#999999" d="m1234.157 190.85648l-55.433105 0l0 -68.94488l55.433105 0z" fill-rule="evenodd"/><path stroke="#000000" stroke-width="1.0" stroke-linejoin="round" stroke-linecap="butt" d="m1234.157 190.85648l-55.433105 0l0 -68.94488l55.433105 0z" fill-rule="evenodd"/><path fill="#000000" fill-opacity="0.0" d="m1178.7014 157.71045l53.95276 0" fill-rule="evenodd"/><path stroke="#000000" stroke-width="1.0" stroke-linejoin="round" stroke-linecap="butt" d="m1178.7014 157.71045l53.95276 0" fill-rule="evenodd"/><path fill="#000000" fill-opacity="0.0" d="m1206.4404 121.9116l0 68.94488" fill-rule="evenodd"/><path stroke="#000000" stroke-width="1.0" stroke-linejoin="round" stroke-linecap="butt" d="m1206.4404 121.9116l0 68.94488" fill-rule="evenodd"/><path fill="#999999" d="m1122.9412 191.01802l-55.433105 0l0 -68.944885l55.433105 0z" fill-rule="evenodd"/><path stroke="#000000" stroke-width="1.0" stroke-linejoin="round" stroke-linecap="butt" d="m1122.9412 191.01802l-55.433105 0l0 -68.944885l55.433105 0z" fill-rule="evenodd"/><path fill="#000000" fill-opacity="0.0" d="m1067.4856 157.67572l53.95276 0" fill-rule="evenodd"/><path stroke="#000000" stroke-width="1.0" stroke-linejoin="round" stroke-linecap="butt" d="m1067.4856 157.67572l53.95276 0" fill-rule="evenodd"/><path fill="#000000" fill-opacity="0.0" d="m1095.2246 122.073135l0 68.944885" fill-rule="evenodd"/><path stroke="#000000" stroke-width="1.0" stroke-linejoin="round" stroke-linecap="butt" d="m1095.2246 122.073135l0 68.944885" fill-rule="evenodd"/><path fill="#999999" d="m1465.3898 89.072014l-55.4646 0l0 -72.72441l55.4646 0z" fill-rule="evenodd"/><path stroke="#000000" stroke-width="1.0" stroke-linejoin="round" stroke-linecap="butt" d="m1465.3898 89.072014l-55.4646 0l0 -72.72441l55.4646 0z" fill-rule="evenodd"/><path fill="#000000" fill-opacity="0.0" d="m1409.9343 54.3231l53.984253 0" fill-rule="evenodd"/><path stroke="#000000" stroke-width="1.0" stroke-linejoin="round" stroke-linecap="butt" d="m1409.9343 54.3231l53.984253 0" fill-rule="evenodd"/><path fill="#000000" fill-opacity="0.0" d="m1437.6575 16.347603l0 72.72441" fill-rule="evenodd"/><path stroke="#000000" stroke-width="1.0" stroke-linejoin="round" stroke-linecap="butt" d="m1437.6575 16.347603l0 72.72441" fill-rule="evenodd"/><path fill="#999999" d="m1465.3754 191.01802l-55.433105 0l0 -68.944885l55.433105 0z" fill-rule="evenodd"/><path stroke="#000000" stroke-width="1.0" stroke-linejoin="round" stroke-linecap="butt" d="m1465.3754 191.01802l-55.433105 0l0 -68.944885l55.433105 0z" fill-rule="evenodd"/><path fill="#000000" fill-opacity="0.0" d="m1409.9197 158.06827l53.95276 0" fill-rule="evenodd"/><path stroke="#000000" stroke-width="1.0" stroke-linejoin="round" stroke-linecap="butt" d="m1409.9197 158.06827l53.95276 0" fill-rule="evenodd"/><path fill="#000000" fill-opacity="0.0" d="m1437.6588 122.073135l0 68.944885" fill-rule="evenodd"/><path stroke="#000000" stroke-width="1.0" stroke-linejoin="round" stroke-linecap="butt" d="m1437.6588 122.073135l0 68.944885" fill-rule="evenodd"/></g></svg>