<?xml version="1.0" standalone="no"?><!-- Generator: Gravit.io --><svg xmlns="http://www.w3.org/2000/svg" xmlns:xlink="http://www.w3.org/1999/xlink" style="isolation:isolate" viewBox="0 0 200 100" width="200" height="100"><defs><clipPath id="_clipPath_dthOKdR4hyT6Etfz9TagRE4byhvxa5pj"><rect width="200" height="100"/></clipPath></defs><g clip-path="url(#_clipPath_dthOKdR4hyT6Etfz9TagRE4byhvxa5pj)"><g><path d=" M 22.899 32.504 L 20.314 32.504 L 20.314 31.857 C 20.314 31.144 19.734 30.565 19.021 30.565 L 13.851 30.565 C 13.138 30.565 12.558 31.144 12.558 31.857 L 12.558 32.504 L 9.973 32.504 C 9.26 32.504 8.68 33.083 8.68 33.796 L 8.68 42.198 C 8.68 42.911 9.26 43.491 9.973 43.491 L 22.899 43.491 C 23.612 43.491 24.192 42.911 24.192 42.198 L 24.192 33.796 C 24.192 33.083 23.612 32.504 22.899 32.504 Z  M 19.667 32.504 L 13.204 32.504 L 13.204 31.857 C 13.204 31.501 13.494 31.211 13.85 31.211 L 19.021 31.211 C 19.378 31.211 19.667 31.501 19.667 31.857 L 19.667 32.504 L 19.667 32.504 Z " fill="rgb(48,60,66)"/><path d=" M 9.973 33.15 L 22.899 33.15 C 23.256 33.15 23.545 33.44 23.545 33.796 L 23.545 35.735 L 21.606 35.735 L 21.606 35.412 C 21.606 35.233 21.462 35.089 21.283 35.089 C 21.105 35.089 20.96 35.233 20.96 35.412 L 20.96 35.735 L 11.912 35.735 L 11.912 35.412 C 11.912 35.233 11.767 35.089 11.588 35.089 C 11.41 35.089 11.265 35.233 11.265 35.412 L 11.265 35.735 L 9.326 35.735 L 9.326 33.796 C 9.326 33.44 9.616 33.15 9.973 33.15 Z " fill="rgb(211,47,47)"/><path d=" M 22.899 42.845 L 9.973 42.845 C 9.616 42.845 9.326 42.555 9.326 42.199 L 9.326 36.382 L 11.265 36.382 L 11.265 37.351 C 11.265 37.53 11.41 37.674 11.588 37.674 C 11.767 37.674 11.912 37.53 11.912 37.351 L 11.912 36.382 L 20.96 36.382 L 20.96 37.351 C 20.96 37.53 21.105 37.674 21.283 37.674 C 21.462 37.674 21.606 37.53 21.606 37.351 L 21.606 36.382 L 23.545 36.382 L 23.545 42.199 C 23.545 42.555 23.256 42.845 22.899 42.845 Z " fill="rgb(250,250,250)"/><g opacity="0.1"><path d=" M 23.545 35.735 L 23.545 33.796 C 23.545 33.44 23.256 33.15 22.899 33.15 L 22.576 33.15 L 22.576 35.735 L 23.545 35.735 Z " fill="rgb(0,0,0)"/></g><g opacity="0.1"><path d=" M 20.637 42.199 L 9.326 42.199 C 9.326 42.555 9.616 42.845 9.973 42.845 L 22.899 42.845 C 23.256 42.845 23.545 42.555 23.545 42.199 L 23.545 36.382 L 22.576 36.382 L 22.576 40.26 C 22.576 41.33 21.708 42.199 20.637 42.199 Z " fill="rgb(0,0,0)"/></g><path d=" M 18.698 38.644 L 17.405 38.644 L 17.405 37.351 C 17.405 37.172 17.261 37.028 17.082 37.028 L 15.789 37.028 C 15.611 37.028 15.466 37.172 15.466 37.351 L 15.466 38.644 L 14.174 38.644 C 13.995 38.644 13.85 38.788 13.85 38.967 L 13.85 40.26 C 13.85 40.438 13.995 40.583 14.174 40.583 L 15.466 40.583 L 15.466 41.875 C 15.466 42.054 15.611 42.199 15.789 42.199 L 17.082 42.199 C 17.261 42.199 17.405 42.054 17.405 41.875 L 17.405 40.583 L 18.698 40.583 C 18.877 40.583 19.021 40.438 19.021 40.26 L 19.021 38.967 C 19.021 38.788 18.877 38.644 18.698 38.644 Z " fill="rgb(48,60,66)"/><path d=" M 18.375 39.936 L 17.082 39.936 C 16.903 39.936 16.759 40.081 16.759 40.26 L 16.759 41.552 L 16.113 41.552 L 16.113 40.26 C 16.113 40.081 15.968 39.936 15.789 39.936 L 14.497 39.936 L 14.497 39.29 L 15.789 39.29 C 15.968 39.29 16.113 39.146 16.113 38.967 L 16.113 37.674 L 16.759 37.674 L 16.759 38.967 C 16.759 39.146 16.904 39.29 17.082 39.29 L 18.375 39.29 L 18.375 39.936 Z " fill="rgb(211,47,47)"/><linearGradient id="_lgradient_0" x1="-0.01989155095400218" y1="0.2790907900540664" x2="1.0231214488643576" y2="0.7654307469291525" gradientTransform="matrix(15.512,0,0,12.926,8.68,30.565)" gradientUnits="userSpaceOnUse"><stop offset="0%" stop-opacity="0.2" style="stop-color:rgb(255,255,255)"/><stop offset="100%" stop-opacity="0" style="stop-color:rgb(255,255,255)"/></linearGradient><path d=" M 22.899 32.504 L 20.314 32.504 L 20.314 31.857 C 20.314 31.144 19.734 30.565 19.021 30.565 L 13.851 30.565 C 13.138 30.565 12.558 31.144 12.558 31.857 L 12.558 32.504 L 9.973 32.504 C 9.26 32.504 8.68 33.083 8.68 33.796 L 8.68 42.198 C 8.68 42.911 9.26 43.491 9.973 43.491 L 22.899 43.491 C 23.612 43.491 24.192 42.911 24.192 42.198 L 24.192 33.796 C 24.192 33.083 23.612 32.504 22.899 32.504 Z  M 19.667 32.504 L 13.204 32.504 L 13.204 31.857 C 13.204 31.501 13.494 31.211 13.85 31.211 L 19.021 31.211 C 19.378 31.211 19.667 31.501 19.667 31.857 L 19.667 32.504 L 19.667 32.504 Z " fill="url(#_lgradient_0)"/></g><g><g><g><g><circle vector-effect="non-scaling-stroke" cx="110.80463140520565" cy="39.87075264535286" r="0.9873654597131036" fill="rgb(212,225,244)"/><path d=" M 112.576 43.162 L 109.034 43.162 C 109.034 42.184 109.827 41.391 110.805 41.391 C 111.783 41.391 112.576 42.184 112.576 43.162 L 112.576 43.162 Z " fill="rgb(212,225,244)"/><circle vector-effect="non-scaling-stroke" cx="105.96178891508873" cy="39.87075264535286" r="0.9873654597131036" fill="rgb(212,225,244)"/><path d=" M 107.764 43.162 L 104.222 43.162 C 104.222 42.184 105.015 41.391 105.993 41.391 C 106.971 41.391 107.764 42.184 107.764 43.162 L 107.764 43.162 Z " fill="rgb(212,225,244)"/><circle vector-effect="non-scaling-stroke" cx="115.66313303034006" cy="39.87075264535286" r="0.9873654597131036" fill="rgb(212,225,244)"/><path d=" M 117.387 43.162 L 113.845 43.162 C 113.846 42.184 114.639 41.391 115.617 41.392 C 116.594 41.392 117.387 42.184 117.387 43.162 Z " fill="rgb(212,225,244)"/></g><path d=" M 108.846 36.627 L 115.115 36.627 L 115.115 30.828 L 106.495 30.828 L 106.495 36.627 L 108.846 36.627 Z  M 116.212 30.655 L 116.212 36.768 C 116.212 37.287 115.791 37.708 115.271 37.708 L 106.338 37.708 C 105.819 37.708 105.398 37.287 105.398 36.768 L 105.398 30.655 C 105.398 30.136 105.819 29.715 106.338 29.715 L 115.271 29.715 C 115.791 29.715 116.212 30.136 116.212 30.655 Z " fill="rgb(0,172,234)"/><path d=" M 115.115 30.828 L 115.115 36.627 L 112.764 36.627 C 112.764 35.545 111.887 34.667 110.805 34.667 C 109.723 34.667 108.846 35.545 108.846 36.627 L 106.495 36.627 L 106.495 30.828 L 115.115 30.828 Z  M 111.902 32.975 C 111.902 32.369 111.411 31.878 110.805 31.878 C 110.199 31.878 109.708 32.369 109.708 32.975 C 109.708 33.581 110.199 34.072 110.805 34.072 C 111.411 34.072 111.902 33.581 111.902 32.975 L 111.902 32.975 Z " fill="rgb(212,225,244)"/><g><path d=" M 112.764 36.627 L 108.846 36.627 C 108.846 35.545 109.723 34.667 110.805 34.667 C 111.887 34.667 112.764 35.545 112.764 36.627 Z " fill="rgb(0,239,209)"/><circle vector-effect="non-scaling-stroke" cx="110.80463140520563" cy="32.97482356403576" r="1.0970693998653473" fill="rgb(0,239,209)"/></g></g><g><path d=" M 105.962 41.156 C 105.249 41.156 104.67 40.583 104.661 39.871 C 104.661 39.152 105.243 38.57 105.962 38.57 C 106.68 38.57 107.263 39.152 107.263 39.871 C 107.254 40.583 106.674 41.156 105.962 41.156 Z  M 105.962 39.181 C 105.587 39.19 105.288 39.496 105.288 39.871 C 105.288 40.243 105.59 40.545 105.962 40.545 C 106.334 40.545 106.636 40.243 106.636 39.871 C 106.636 39.496 106.337 39.19 105.962 39.181 Z " fill="rgb(8,56,99)"/><path d=" M 107.764 43.491 L 104.222 43.491 C 104.049 43.491 103.909 43.351 103.909 43.178 C 103.909 42.026 104.842 41.093 105.993 41.093 C 107.144 41.093 108.078 42.026 108.078 43.178 C 108.078 43.351 107.937 43.491 107.764 43.491 Z  M 104.567 42.864 L 107.419 42.864 C 107.273 42.192 106.681 41.711 105.993 41.704 C 105.305 41.711 104.713 42.192 104.567 42.864 Z " fill="rgb(8,56,99)"/><path d=" M 110.805 41.156 C 110.092 41.156 109.512 40.583 109.504 39.871 C 109.504 39.152 110.086 38.57 110.805 38.57 C 111.523 38.57 112.105 39.152 112.105 39.871 C 112.097 40.583 111.517 41.156 110.805 41.156 Z  M 110.805 39.181 C 110.43 39.19 110.131 39.496 110.131 39.871 C 110.131 40.243 110.432 40.545 110.805 40.545 C 111.177 40.545 111.479 40.243 111.479 39.871 C 111.479 39.496 111.179 39.19 110.805 39.181 Z " fill="rgb(8,56,99)"/><path d=" M 112.576 43.491 L 109.034 43.491 C 108.86 43.491 108.72 43.351 108.72 43.178 C 108.72 42.026 109.653 41.093 110.805 41.093 C 111.956 41.093 112.889 42.026 112.889 43.178 L 112.889 43.178 C 112.889 43.351 112.749 43.491 112.576 43.491 L 112.576 43.491 Z  M 109.378 42.864 L 112.231 42.864 C 112.065 42.077 111.292 41.573 110.504 41.739 C 109.939 41.858 109.498 42.299 109.378 42.864 L 109.378 42.864 Z " fill="rgb(8,56,99)"/><path d=" M 115.663 41.156 C 114.951 41.156 114.371 40.583 114.362 39.871 C 114.362 39.152 114.944 38.57 115.663 38.569 C 116.381 38.569 116.964 39.151 116.964 39.87 C 116.964 39.87 116.964 39.87 116.964 39.871 C 116.955 40.583 116.375 41.156 115.663 41.156 Z  M 115.663 39.181 C 115.288 39.19 114.989 39.496 114.989 39.871 C 114.989 40.243 115.291 40.545 115.664 40.544 C 116.035 40.544 116.337 40.243 116.337 39.871 C 116.337 39.496 116.038 39.19 115.663 39.181 Z " fill="rgb(8,56,99)"/><path d=" M 117.387 43.491 L 113.845 43.491 C 113.672 43.491 113.532 43.351 113.532 43.178 C 113.531 42.026 114.464 41.093 115.615 41.093 C 116.767 41.092 117.7 42.025 117.701 43.176 C 117.701 43.177 117.701 43.177 117.701 43.178 C 117.701 43.351 117.56 43.491 117.387 43.491 Z  M 114.19 42.864 L 117.042 42.864 C 116.876 42.077 116.103 41.573 115.315 41.739 C 114.75 41.858 114.309 42.299 114.19 42.864 L 114.19 42.864 Z " fill="rgb(8,56,99)"/><path d=" M 110.805 34.401 C 110.026 34.401 109.394 33.77 109.394 32.991 C 109.394 32.212 110.026 31.58 110.805 31.58 C 111.584 31.58 112.215 32.212 112.215 32.991 C 112.215 33.77 111.584 34.401 110.805 34.401 Z  M 110.805 32.207 C 110.372 32.207 110.021 32.558 110.021 32.99 C 110.021 33.423 110.372 33.774 110.805 33.774 C 111.237 33.774 111.588 33.423 111.588 32.99 C 111.588 32.558 111.237 32.207 110.805 32.207 Z " fill="rgb(8,56,99)"/><path d=" M 115.35 30.796 C 115.35 30.623 115.209 30.483 115.036 30.483 L 106.416 30.483 C 106.243 30.483 106.103 30.623 106.103 30.796 L 106.103 36.595 C 106.103 36.768 106.243 36.909 106.416 36.909 L 115.036 36.909 C 115.209 36.909 115.35 36.768 115.35 36.595 L 115.35 30.796 Z  M 109.19 36.282 C 109.367 35.39 110.233 34.811 111.124 34.987 C 111.778 35.117 112.289 35.628 112.419 36.282 L 109.19 36.282 Z  M 114.723 36.282 L 113.046 36.282 C 112.838 35.044 111.666 34.209 110.428 34.417 C 109.473 34.577 108.724 35.326 108.563 36.282 L 106.73 36.282 L 106.73 31.11 L 114.723 31.11 L 114.723 36.282 Z " fill="rgb(8,56,99)"/><path d=" M 115.271 38.006 L 106.338 38.006 C 105.645 38.006 105.084 37.444 105.084 36.752 L 105.084 30.64 C 105.084 29.947 105.645 29.386 106.338 29.386 L 115.271 29.386 C 115.964 29.386 116.525 29.947 116.525 30.64 L 116.525 36.752 C 116.525 37.444 115.964 38.006 115.271 38.006 Z  M 106.338 30.013 C 105.992 30.013 105.711 30.293 105.711 30.64 L 105.711 36.752 C 105.702 37.089 105.969 37.37 106.306 37.379 C 106.317 37.379 106.327 37.379 106.338 37.379 L 115.271 37.379 C 115.609 37.388 115.889 37.121 115.898 36.784 C 115.899 36.773 115.899 36.763 115.898 36.752 L 115.898 30.64 C 115.898 30.293 115.618 30.013 115.271 30.013 L 106.338 30.013 Z " fill="rgb(8,56,99)"/></g></g></g><g><path d=" M 107.31 78.387 L 107.862 80.32 L 107.31 80.32 C 107.31 81.083 106.691 81.701 105.929 81.701 L 105.929 81.701 C 105.166 81.701 104.548 81.083 104.548 80.32 L 104.548 78.387 C 104.548 77.93 104.919 77.559 105.376 77.559 L 106.481 77.559 C 106.939 77.559 107.31 77.93 107.31 78.387 Z " fill="rgb(242,187,128)"/><path d=" M 113.661 73.693 L 108.69 73.693 C 108.233 73.693 107.862 74.064 107.862 74.521 L 107.862 76.178 C 107.862 76.636 108.233 77.007 108.69 77.007 L 108.69 77.007 L 108.69 77.835 L 110.071 77.007 L 113.661 77.007 C 114.119 77.007 114.489 76.636 114.489 76.178 L 114.489 74.521 C 114.489 74.064 114.119 73.693 113.661 73.693 Z " fill="rgb(67,152,209)"/><path d=" M 118.079 85.291 L 114.766 85.291 L 114.766 82.806 C 114.766 82.196 115.26 81.701 115.87 81.701 L 116.975 81.701 C 117.585 81.701 118.079 82.196 118.079 82.806 L 118.079 85.291 L 118.079 85.291 Z " fill="rgb(135,206,217)"/><path d=" M 104.272 85.291 L 107.586 85.291 L 107.586 82.806 C 107.586 82.196 107.091 81.701 106.481 81.701 L 105.376 81.701 C 104.766 81.701 104.272 82.196 104.272 82.806 C 104.272 82.806 104.272 85.291 104.272 85.291 Z " fill="rgb(67,152,209)"/><circle vector-effect="non-scaling-stroke" cx="106.2060061005715" cy="79.49198468390978" r="0.2761624799300648" fill="rgb(107,64,42)"/><path d=" M 104.272 85.291 L 104.272 85.291 C 104.272 86.054 104.89 86.672 105.653 86.672 L 107.586 86.672 L 107.586 89.986 L 109.519 89.986 L 108.966 89.157 L 108.966 86.396 C 108.966 85.786 108.472 85.291 107.862 85.291 L 104.272 85.291 L 104.272 85.291 Z " fill="rgb(18,96,153)"/><path d=" M 106.569 89.447 L 105.1 88.958 L 105.1 87.777 L 104.548 87.777 L 104.548 88.958 L 103.079 89.447 C 102.93 89.496 102.849 89.656 102.898 89.805 C 102.947 89.953 103.107 90.035 103.256 89.986 L 104.824 89.447 L 106.393 89.986 C 106.422 89.99 106.452 89.99 106.481 89.986 C 106.6 89.986 106.705 89.91 106.743 89.798 C 106.793 89.654 106.715 89.497 106.571 89.448 C 106.571 89.448 106.57 89.447 106.569 89.447 Z " fill="rgb(209,209,209)"/><rect x="105.654" y="81.701" width="0.552" height="2.762" transform="matrix(1,0,0,1,0,0)" fill="rgb(18,96,153)"/><path d=" M 106.481 78.664 L 105.376 78.664 L 104.548 79.768 L 104.548 78.387 C 104.548 77.93 104.919 77.559 105.376 77.559 L 107.586 77.559 C 107.586 78.169 107.091 78.664 106.481 78.664 Z " fill="rgb(107,64,42)"/><path d=" M 115.042 78.387 L 114.489 80.32 L 115.042 80.32 C 115.042 81.083 115.66 81.701 116.423 81.701 L 116.423 81.701 C 117.185 81.701 117.803 81.083 117.803 80.32 L 117.803 78.387 L 115.042 78.387 Z " fill="rgb(242,187,128)"/><path d=" M 117.803 78.387 L 117.803 78.387 C 117.803 77.93 117.432 77.559 116.975 77.559 L 114.904 77.559 C 114.675 77.559 114.489 77.744 114.489 77.973 C 114.489 78.202 114.675 78.387 114.904 78.387 L 116.699 78.387 L 117.803 79.768 L 117.803 78.387 Z " fill="rgb(107,64,42)"/><g><rect x="108.691" y="74.521" width="4.971" height="0.552" transform="matrix(1,0,0,1,0,0)" fill="rgb(53,130,189)"/><rect x="108.691" y="75.626" width="1.105" height="0.552" transform="matrix(1,0,0,1,0,0)" fill="rgb(53,130,189)"/><rect x="110.348" y="75.626" width="3.314" height="0.552" transform="matrix(1,0,0,1,0,0)" fill="rgb(53,130,189)"/></g><path d=" M 112.833 77.007 C 113.29 77.007 113.661 77.377 113.661 77.835 L 113.661 78.387 C 113.661 78.845 113.29 79.216 112.833 79.216 L 112.28 79.216 L 112.28 80.044 L 110.9 79.216 L 110.071 79.216 C 109.613 79.216 109.243 78.845 109.243 78.387 L 109.243 77.835 C 109.243 77.377 109.613 77.007 110.071 77.007 C 110.071 77.007 112.833 77.007 112.833 77.007 Z " fill="rgb(135,206,217)"/><rect x="107.587" y="83.91" width="7.18" height="0.828" transform="matrix(1,0,0,1,0,0)" fill="rgb(107,64,42)"/><path d=" M 119.272 89.447 L 117.803 88.958 L 117.803 87.777 L 117.251 87.777 L 117.251 88.958 L 115.782 89.447 C 115.637 89.496 115.559 89.653 115.608 89.798 C 115.657 89.943 115.814 90.021 115.959 89.972 L 117.527 89.447 L 119.096 89.986 C 119.125 89.99 119.155 89.99 119.184 89.986 C 119.308 89.992 119.421 89.915 119.46 89.798 C 119.507 89.653 119.428 89.497 119.282 89.45 C 119.279 89.449 119.276 89.448 119.272 89.447 Z " fill="rgb(209,209,209)"/><rect x="116.147" y="81.701" width="0.552" height="2.762" transform="matrix(1,0,0,1,0,0)" fill="rgb(67,152,209)"/><g><path d=" M 104.272 86.672 L 105.929 86.672 C 106.234 86.672 106.481 86.919 106.481 87.224 L 106.481 87.224 C 106.481 87.529 106.234 87.777 105.929 87.777 L 103.996 87.777 C 103.538 87.777 103.167 87.406 103.167 86.948 L 103.167 83.082 C 103.167 82.777 103.414 82.53 103.72 82.53 L 103.72 82.53 C 104.025 82.53 104.272 82.777 104.272 83.082 L 104.272 86.672 Z " fill="rgb(107,64,42)"/><path d=" M 118.079 86.672 L 116.423 86.672 C 116.117 86.672 115.87 86.919 115.87 87.224 L 115.87 87.224 C 115.87 87.529 116.117 87.777 116.423 87.777 L 118.356 87.777 C 118.813 87.777 119.184 87.406 119.184 86.948 L 119.184 83.082 C 119.184 82.777 118.937 82.53 118.632 82.53 L 118.632 82.53 C 118.327 82.53 118.079 82.777 118.079 83.082 L 118.079 86.672 L 118.079 86.672 Z " fill="rgb(107,64,42)"/></g><path d=" M 110.071 83.91 L 107.586 83.91 L 107.586 83.358 L 109.88 83.358 L 110.64 81.328 L 111.159 81.522 L 110.331 83.731 C 110.29 83.839 110.187 83.911 110.071 83.91 Z " fill="rgb(209,209,209)"/><path d=" M 118.079 85.291 L 118.079 85.291 C 118.079 86.054 117.461 86.672 116.699 86.672 L 114.766 86.672 L 114.766 89.986 L 112.833 89.986 L 113.385 89.157 L 113.385 86.396 C 113.385 85.786 113.879 85.291 114.489 85.291 L 118.079 85.291 L 118.079 85.291 Z " fill="rgb(18,96,153)"/><path d=" M 111.452 89.433 L 111.452 84.739 L 110.9 84.739 L 110.9 89.433 L 109.519 89.433 L 109.519 89.986 L 112.833 89.986 L 112.833 89.433 L 111.452 89.433 Z " fill="rgb(209,209,209)"/><g><rect x="110.072" y="77.835" width="1.657" height="0.552" transform="matrix(1,0,0,1,0,0)" fill="rgb(83,159,189)"/><rect x="112.281" y="77.835" width="0.552" height="0.552" transform="matrix(1,0,0,1,0,0)" fill="rgb(83,159,189)"/></g><circle vector-effect="non-scaling-stroke" cx="115.87133647582176" cy="79.49198468390978" r="0.2761624799300648" fill="rgb(107,64,42)"/></g><g><path d=" M 118.01 51.907 L 103.372 51.907 C 102.565 51.907 101.909 52.639 101.909 53.54 L 101.909 64.976 C 101.909 65.877 102.565 66.61 103.372 66.61 L 118.01 66.61 C 118.817 66.61 119.474 65.877 119.474 64.976 L 119.474 53.54 C 119.474 52.639 118.817 51.907 118.01 51.907 Z " fill="rgb(48,60,66)"/><path d=" M 118.742 64.976 C 118.742 65.426 118.413 65.793 118.01 65.793 L 103.372 65.793 C 102.969 65.793 102.641 65.426 102.641 64.976 L 102.641 53.54 C 102.641 53.09 102.969 52.724 103.372 52.724 L 118.01 52.724 C 118.413 52.724 118.742 53.09 118.742 53.54 L 118.742 64.976 L 118.742 64.976 Z " fill="rgb(223,225,223)"/><g opacity="0.1"><path d=" M 118.01 52.724 L 117.644 52.724 L 117.644 61.621 C 117.644 63.248 116.462 64.567 115.004 64.567 L 102.641 64.567 L 102.641 64.976 C 102.641 65.426 102.969 65.793 103.372 65.793 L 118.01 65.793 C 118.414 65.793 118.742 65.426 118.742 64.976 L 118.742 53.54 C 118.742 53.09 118.414 52.724 118.01 52.724 Z " fill="rgb(0,0,0)"/></g><path d=" M 115.082 57.624 C 115.284 57.624 115.448 57.808 115.448 58.033 C 115.448 58.259 115.612 58.441 115.814 58.441 L 117.278 58.441 C 117.48 58.441 117.644 58.259 117.644 58.033 C 117.644 56.457 116.495 55.174 115.082 55.174 C 113.67 55.174 112.521 56.457 112.521 58.033 L 112.521 60.483 C 112.521 62.06 113.67 63.342 115.082 63.342 C 116.495 63.342 117.644 62.06 117.644 60.483 C 117.644 60.258 117.48 60.075 117.278 60.075 L 115.814 60.075 C 115.612 60.075 115.448 60.258 115.448 60.483 C 115.448 60.709 115.284 60.892 115.082 60.892 C 114.881 60.892 114.716 60.709 114.716 60.483 L 114.716 58.033 C 114.716 57.808 114.881 57.624 115.082 57.624 Z " fill="rgb(48,60,66)"/><path d=" M 115.082 61.709 C 115.56 61.709 115.967 61.367 116.118 60.892 L 116.875 60.892 C 116.705 61.823 115.966 62.525 115.082 62.525 C 114.074 62.525 113.253 61.609 113.253 60.483 L 113.253 58.033 C 113.253 56.907 114.074 55.991 115.082 55.991 C 115.966 55.991 116.705 56.694 116.875 57.625 L 116.118 57.625 C 115.967 57.149 115.56 56.808 115.082 56.808 C 114.477 56.808 113.985 57.357 113.985 58.033 L 113.985 60.483 C 113.985 61.159 114.477 61.709 115.082 61.709 Z " fill="rgb(30,136,229)"/><path d=" M 111.423 55.174 L 109.959 55.174 C 109.757 55.174 109.593 55.357 109.593 55.582 L 109.593 59.57 L 109.227 60.387 L 108.861 59.57 L 108.861 56.399 C 108.861 56.174 108.698 55.991 108.495 55.991 L 107.032 55.991 C 106.829 55.991 106.666 56.174 106.666 56.399 L 106.666 59.57 L 106.3 60.387 L 105.934 59.57 L 105.934 55.582 C 105.934 55.357 105.77 55.174 105.568 55.174 L 104.104 55.174 C 103.902 55.174 103.738 55.357 103.738 55.582 L 103.738 60.075 C 103.738 60.146 103.755 60.216 103.787 60.278 L 105.25 63.136 C 105.315 63.264 105.437 63.342 105.568 63.342 L 107.032 63.342 C 107.17 63.342 107.297 63.255 107.359 63.117 L 107.764 62.214 L 108.168 63.117 C 108.23 63.255 108.357 63.342 108.496 63.342 L 109.959 63.342 C 110.091 63.342 110.212 63.264 110.277 63.136 L 111.741 60.278 C 111.772 60.216 111.789 60.146 111.789 60.075 L 111.789 55.582 C 111.789 55.357 111.625 55.174 111.423 55.174 Z " fill="rgb(48,60,66)"/><path d=" M 111.057 59.966 L 109.747 62.525 L 108.722 62.525 L 108.091 61.118 C 107.967 60.841 107.561 60.841 107.436 61.118 L 106.806 62.525 L 105.78 62.525 L 104.47 59.966 L 104.47 55.991 L 105.202 55.991 L 105.202 59.667 C 105.202 59.73 105.215 59.793 105.241 59.849 L 105.973 61.483 C 106.097 61.76 106.503 61.76 106.627 61.483 L 107.359 59.849 C 107.385 59.793 107.398 59.73 107.398 59.667 L 107.398 56.808 L 108.13 56.808 L 108.13 59.667 C 108.13 59.73 108.143 59.793 108.168 59.849 L 108.9 61.483 C 109.024 61.76 109.43 61.76 109.555 61.483 L 110.287 59.849 C 110.312 59.793 110.325 59.73 110.325 59.667 L 110.325 55.991 L 111.057 55.991 L 111.057 59.966 L 111.057 59.966 Z " fill="rgb(30,136,229)"/><linearGradient id="_lgradient_1" x1="-0.019891589804687637" y1="0.2545438284374958" x2="1.0231234471484374" y2="0.7408847351953102" gradientTransform="matrix(17.565,0,0,14.703,101.909,51.907)" gradientUnits="userSpaceOnUse"><stop offset="0%" stop-opacity="0.2" style="stop-color:rgb(255,255,255)"/><stop offset="100%" stop-opacity="0" style="stop-color:rgb(255,255,255)"/></linearGradient><path d=" M 118.01 51.907 L 103.372 51.907 C 102.565 51.907 101.909 52.639 101.909 53.54 L 101.909 64.976 C 101.909 65.877 102.565 66.61 103.372 66.61 L 118.01 66.61 C 118.817 66.61 119.474 65.877 119.474 64.976 L 119.474 53.54 C 119.474 52.639 118.817 51.907 118.01 51.907 Z " fill="url(#_lgradient_1)"/></g><g><path d=" M 14.174 54.893 L 12.727 54.559 C 12.279 54.456 11.832 54.736 11.729 55.184 L 10.821 59.123 C 10.787 59.271 10.78 59.424 10.798 59.574 L 11.211 62.882 L 10.896 65.891 C 10.859 66.249 11.118 66.569 11.475 66.606 C 11.832 66.643 12.152 66.384 12.19 66.027 L 12.513 62.939 C 12.519 62.887 12.518 62.834 12.511 62.782 L 12.115 59.657 L 13.839 60.054 L 14.799 55.891 C 14.902 55.443 14.622 54.996 14.174 54.893 Z " fill="rgb(95,110,155)"/><path d=" M 9.141 58.591 C 8.895 58.405 8.845 58.055 9.031 57.809 L 10.403 55.983 C 10.475 55.888 10.575 55.818 10.689 55.784 L 13.013 55.084 C 13.308 54.996 13.619 55.163 13.708 55.458 C 13.797 55.754 13.63 56.065 13.334 56.154 L 11.186 56.8 L 9.923 58.48 C 9.739 58.725 9.389 58.776 9.141 58.591 Z " fill="rgb(255,182,158)"/><path d=" M 13.715 65.253 C 13.363 65.18 13.137 64.836 13.209 64.484 L 13.8 61.611 L 11.82 59.285 C 11.587 59.012 11.62 58.601 11.893 58.368 C 12.167 58.135 12.577 58.168 12.81 58.442 L 14.996 61.01 C 15.126 61.162 15.179 61.366 15.138 61.563 L 14.483 64.747 C 14.411 65.097 14.068 65.325 13.715 65.253 Z " fill="rgb(65,75,130)"/><path d=" M 14.174 54.893 C 13.692 54.782 13.21 54.671 12.727 54.559 C 12.279 54.456 11.832 54.736 11.729 55.184 C 11.576 55.85 11.068 58.055 10.821 59.123 C 10.804 59.198 10.794 59.275 10.79 59.351 C 11.086 59.42 13.538 59.984 13.839 60.054 C 14.824 55.779 14.802 55.88 14.808 55.843 C 14.881 55.411 14.606 54.992 14.174 54.893 Z " fill="rgb(100,175,255)"/><circle vector-effect="non-scaling-stroke" cx="14.035513125195257" cy="53.139382555369465" r="1.2326136731814579" fill="rgb(255,182,158)"/><path d=" M 21.522 61.235 C 21.432 61.235 21.359 61.308 21.359 61.398 L 21.359 62.579 L 18.689 62.579 C 18.599 62.579 18.526 62.652 18.526 62.742 L 18.526 63.922 L 15.856 63.922 C 15.766 63.922 15.693 63.995 15.693 64.085 L 15.693 65.266 L 13.023 65.266 C 12.933 65.266 12.86 65.339 12.86 65.429 L 12.86 66.447 C 12.86 66.537 12.933 66.61 13.023 66.61 L 24.029 66.61 C 24.119 66.61 24.192 66.537 24.192 66.447 L 24.192 61.398 C 24.192 61.308 24.119 61.235 24.029 61.235 L 21.522 61.235 L 21.522 61.235 Z " fill="rgb(165,200,205)"/><path d=" M 9.706 66.61 C 9.435 66.61 9.215 66.389 9.215 66.118 L 9.215 62.579 C 9.215 62.398 9.313 62.233 9.472 62.147 L 23.465 54.535 C 23.617 54.452 23.802 54.455 23.951 54.544 C 24.1 54.633 24.192 54.793 24.192 54.966 L 24.192 62.054 C 24.192 62.326 23.972 62.546 23.7 62.546 C 23.429 62.546 23.208 62.326 23.208 62.054 L 23.208 55.793 L 10.198 62.871 L 10.198 66.118 C 10.198 66.389 9.978 66.61 9.706 66.61 Z " fill="rgb(85,135,155)"/><path d=" M 16.578 58.869 L 14.361 58.617 C 14.176 58.596 14.013 58.483 13.927 58.317 L 12.688 55.896 C 12.547 55.622 12.656 55.285 12.931 55.145 C 13.205 55.004 13.542 55.113 13.682 55.387 L 14.785 57.541 L 16.704 57.76 C 17.011 57.795 17.231 58.071 17.196 58.378 C 17.161 58.684 16.885 58.904 16.578 58.869 Z " fill="rgb(255,182,158)"/><path d=" M 14.287 56.569 L 13.682 55.387 C 13.542 55.113 13.205 55.004 12.931 55.145 C 12.656 55.285 12.547 55.622 12.688 55.896 L 13.278 57.048 L 14.287 56.569 Z " fill="rgb(120,190,255)"/></g><g><rect x="9.948" y="77.024" width="12.976" height="12.976" transform="matrix(1,0,0,1,0,0)" fill="rgb(84,106,121)"/><rect x="12.185" y="79.037" width="8.502" height="10.963" transform="matrix(1,0,0,1,0,0)" fill="rgb(189,195,199)" vector-effect="non-scaling-stroke" stroke-width="0.6" stroke="rgb(236,240,241)" stroke-opacity="100" stroke-linejoin="miter" stroke-linecap="butt" stroke-miterlimit="2"/><rect x="21.358" y="82.841" width="0.895" height="3.132" transform="matrix(1,0,0,1,0,0)" fill="rgb(236,240,241)"/><g><line x1="21.358" y1="84.407" x2="22.253" y2="84.407"/><rect x="21.358" y="84.183" width="0.895" height="0.447" transform="matrix(1,0,0,1,0,0)" fill="rgb(84,106,121)"/></g><line x1="16.436" y1="79.037" x2="16.436" y2="90" vector-effect="non-scaling-stroke" stroke-width="0.3" stroke="rgb(236,240,241)" stroke-opacity="100" stroke-linejoin="miter" stroke-linecap="butt" stroke-miterlimit="10"/><rect x="14.646" y="77.471" width="3.58" height="0.895" transform="matrix(1,0,0,1,0,0)" fill="rgb(240,196,25)"/></g><g><path d=" M 18.16 18.26 L 15.929 17.144 C 15.641 17 15.459 16.705 15.459 16.383 L 15.459 15.508 C 15.521 15.436 15.593 15.344 15.67 15.236 C 15.974 14.807 16.204 14.334 16.363 13.838 C 16.65 13.75 16.86 13.486 16.86 13.172 L 16.86 12.237 C 16.86 12.032 16.769 11.848 16.627 11.72 L 16.627 10.369 C 16.627 10.369 16.904 8.267 14.057 8.267 C 11.21 8.267 11.488 10.369 11.488 10.369 L 11.488 11.72 C 11.346 11.848 11.254 12.032 11.254 12.237 L 11.254 13.172 C 11.254 13.418 11.384 13.634 11.577 13.76 C 11.811 14.776 12.422 15.508 12.422 15.508 L 12.422 16.361 C 12.422 16.673 12.252 16.959 11.979 17.108 L 9.895 18.245 C 9.293 18.573 8.919 19.204 8.919 19.89 L 8.919 20.646 L 19.196 20.646 L 19.196 19.935 C 19.196 19.226 18.795 18.577 18.16 18.26 Z " fill="rgb(48,131,201)"/><path d=" M 21.548 18.531 L 19.265 17.542 C 19.14 17.48 19.038 17.347 18.967 17.203 C 18.902 17.073 18.999 16.92 19.144 16.92 L 20.752 16.92 C 20.752 16.92 21.341 16.976 21.796 16.781 C 22.062 16.667 22.154 16.332 21.987 16.095 C 21.5 15.402 20.493 13.769 20.461 12.083 C 20.461 12.083 20.405 9.488 17.845 9.467 C 17.334 9.471 16.917 9.578 16.574 9.744 C 16.662 10.094 16.627 10.369 16.627 10.369 L 16.627 11.72 C 16.769 11.848 16.86 12.032 16.86 12.237 L 16.86 13.172 C 16.86 13.486 16.65 13.75 16.363 13.838 C 16.204 14.334 15.974 14.807 15.67 15.236 C 15.593 15.344 15.521 15.436 15.459 15.508 L 15.459 16.383 C 15.459 16.582 15.529 16.77 15.65 16.919 L 16.292 16.919 C 16.453 16.919 16.524 17.122 16.398 17.221 C 16.354 17.256 16.313 17.288 16.274 17.316 L 18.161 18.26 C 18.795 18.577 19.196 19.226 19.196 19.935 L 19.196 20.646 L 22.466 20.646 L 22.466 20.016 C 22.466 19.387 22.111 18.812 21.548 18.531 Z " fill="rgb(203,70,95)"/></g><g><g><g><path d=" M 109.805 18.682 C 109.667 18.682 109.556 18.571 109.556 18.434 L 109.556 17.439 C 109.556 17.302 109.667 17.191 109.805 17.191 C 109.942 17.191 110.053 17.302 110.053 17.439 L 110.053 18.434 C 110.053 18.571 109.942 18.682 109.805 18.682 Z " fill="rgb(199,203,199)"/><path d=" M 106.076 20.174 C 105.938 20.174 105.827 20.062 105.827 19.925 L 105.827 19.428 C 105.827 19.291 105.938 19.18 106.076 19.18 C 106.213 19.18 106.324 19.291 106.324 19.428 L 106.324 19.925 C 106.324 20.063 106.213 20.174 106.076 20.174 Z " fill="rgb(199,203,199)"/><path d=" M 106.076 19.677 C 105.962 19.677 105.86 19.599 105.833 19.484 C 105.803 19.35 105.886 19.217 106.02 19.186 L 109.252 18.44 C 109.385 18.41 109.519 18.493 109.55 18.626 C 109.581 18.76 109.497 18.894 109.363 18.925 L 106.132 19.671 C 106.113 19.675 106.094 19.677 106.076 19.677 Z " fill="rgb(199,203,199)"/><path d=" M 113.533 20.174 C 113.396 20.174 113.285 20.062 113.285 19.925 L 113.285 19.428 C 113.285 19.291 113.396 19.18 113.533 19.18 C 113.671 19.18 113.782 19.291 113.782 19.428 L 113.782 19.925 C 113.782 20.063 113.671 20.174 113.533 20.174 Z " fill="rgb(199,203,199)"/><path d=" M 113.534 19.677 C 113.515 19.677 113.496 19.675 113.477 19.67 L 110.246 18.925 C 110.112 18.894 110.029 18.76 110.059 18.626 C 110.09 18.493 110.224 18.41 110.358 18.44 L 113.589 19.186 C 113.723 19.217 113.807 19.35 113.776 19.484 C 113.749 19.599 113.647 19.677 113.534 19.677 Z " fill="rgb(199,203,199)"/><path d=" M 108.562 20.174 C 108.498 20.174 108.434 20.15 108.386 20.101 C 108.289 20.004 108.289 19.847 108.386 19.75 L 109.132 19.004 C 109.229 18.907 109.386 18.907 109.483 19.004 C 109.58 19.101 109.58 19.258 109.483 19.355 L 108.737 20.101 C 108.689 20.15 108.625 20.174 108.562 20.174 Z " fill="rgb(199,203,199)"/><path d=" M 111.048 20.174 C 110.984 20.174 110.92 20.15 110.872 20.101 L 110.126 19.355 C 110.029 19.258 110.029 19.101 110.126 19.004 C 110.223 18.907 110.38 18.907 110.478 19.004 L 111.223 19.75 C 111.321 19.847 111.321 20.004 111.223 20.101 C 111.175 20.15 111.111 20.174 111.048 20.174 Z " fill="rgb(199,203,199)"/><path d=" M 105.827 15.451 C 105.279 15.451 104.833 15.005 104.833 14.456 L 104.833 12.965 C 104.833 12.828 104.944 12.716 105.082 12.716 C 105.219 12.716 105.33 12.828 105.33 12.965 L 105.33 14.456 C 105.33 14.731 105.553 14.954 105.827 14.954 C 105.965 14.954 106.076 15.065 106.076 15.202 C 106.076 15.339 105.965 15.451 105.827 15.451 Z " fill="rgb(199,203,199)"/></g><path d=" M 104.584 12.965 L 105.579 12.965 L 105.579 11.971 L 104.584 11.971 L 104.584 12.965 Z " fill="rgb(221,52,46)"/><path d=" M 113.782 15.451 C 113.645 15.451 113.533 15.339 113.533 15.202 C 113.533 15.065 113.645 14.954 113.782 14.954 C 114.056 14.954 114.279 14.731 114.279 14.456 L 114.279 12.965 C 114.279 12.828 114.39 12.716 114.528 12.716 C 114.665 12.716 114.776 12.828 114.776 12.965 L 114.776 14.456 C 114.776 15.005 114.33 15.451 113.782 15.451 Z " fill="rgb(199,203,199)"/><path d=" M 114.031 12.965 L 115.025 12.965 L 115.025 11.971 L 114.031 11.971 L 114.031 12.965 Z " fill="rgb(221,52,46)"/><path d=" M 109.805 14.951 C 109.667 14.951 109.556 14.839 109.556 14.702 L 109.556 13.462 C 109.556 13.325 109.667 13.213 109.805 13.213 C 109.942 13.213 110.053 13.325 110.053 13.462 L 110.053 14.702 C 110.053 14.839 109.942 14.951 109.805 14.951 Z " fill="rgb(199,203,199)"/><g><path d=" M 111.609 13.711 L 108 13.711 C 107.357 13.711 106.842 13.176 106.867 12.533 L 107.028 8.338 C 107.052 7.729 107.552 7.247 108.161 7.247 L 111.448 7.247 C 112.057 7.247 112.558 7.729 112.581 8.338 L 112.742 12.533 C 112.767 13.176 112.253 13.711 111.609 13.711 Z " fill="rgb(221,52,46)"/><path d=" M 109.805 16.694 C 108.562 16.694 105.827 16.445 105.827 15.451 C 105.827 14.961 106.332 14.705 106.821 14.705 L 112.846 14.705 C 113.273 14.705 113.782 14.969 113.782 15.451 C 113.782 16.445 111.036 16.694 109.805 16.694 Z " fill="rgb(221,52,46)"/></g><g><path d=" M 109.307 17.439 L 110.302 17.439 L 110.302 16.694 L 109.307 16.694 L 109.307 17.439 Z " fill="rgb(84,106,121)"/><path d=" M 109.307 19.18 L 110.302 19.18 L 110.302 18.434 L 109.307 18.434 L 109.307 19.18 Z " fill="rgb(84,106,121)"/></g><g><path d=" M 106.946 20.795 C 106.946 21.276 106.556 21.665 106.076 21.665 C 105.595 21.665 105.206 21.276 105.206 20.795 C 105.206 20.315 105.595 19.925 106.076 19.925 C 106.556 19.925 106.946 20.315 106.946 20.795 Z " fill="rgb(56,69,79)"/><path d=" M 114.528 20.795 C 114.528 21.276 114.138 21.665 113.658 21.665 C 113.177 21.665 112.788 21.276 112.788 20.795 C 112.788 20.315 113.177 19.925 113.658 19.925 C 114.138 19.925 114.528 20.315 114.528 20.795 Z " fill="rgb(56,69,79)"/><path d=" M 109.307 20.795 C 109.307 21.276 108.918 21.665 108.437 21.665 C 107.957 21.665 107.567 21.276 107.567 20.795 C 107.567 20.315 107.957 19.925 108.437 19.925 C 108.918 19.925 109.307 20.315 109.307 20.795 Z " fill="rgb(56,69,79)"/><path d=" M 112.042 20.795 C 112.042 21.276 111.652 21.665 111.172 21.665 C 110.691 21.665 110.302 21.276 110.302 20.795 C 110.302 20.315 110.691 19.925 111.172 19.925 C 111.652 19.925 112.042 20.315 112.042 20.795 Z " fill="rgb(56,69,79)"/></g></g></g><g transform="matrix(1,0,0,1,27,9.409)"><text transform="matrix(1,0,0,1,0,9.62)" style="font-family:'Open Sans';font-weight:400;font-size:9px;font-style:normal;fill:#000000;stroke:none;">Collaborateur</text></g><g transform="matrix(1,0,0,1,27,31.512)"><text transform="matrix(1,0,0,1,0,9.62)" style="font-family:'Open Sans';font-weight:400;font-size:9px;font-style:normal;fill:#000000;stroke:none;">Infirmerie</text></g><g transform="matrix(1,0,0,1,27,53.615)"><text transform="matrix(1,0,0,1,0,9.62)" style="font-family:'Open Sans';font-weight:400;font-size:9px;font-style:normal;fill:#000000;stroke:none;">Escalier</text></g><g transform="matrix(1,0,0,1,27,75.718)"><text transform="matrix(1,0,0,1,0,9.62)" style="font-family:'Open Sans';font-weight:400;font-size:9px;font-style:normal;fill:#000000;stroke:none;">Ascenseur</text></g><g transform="matrix(1,0,0,1,130,9.409)"><text transform="matrix(1,0,0,1,0,9.62)" style="font-family:'Open Sans';font-weight:400;font-size:9px;font-style:normal;fill:#000000;stroke:none;">Place libre</text></g><g transform="matrix(1,0,0,1,130,31.512)"><text transform="matrix(1,0,0,1,0,9.62)" style="font-family:'Open Sans';font-weight:400;font-size:9px;font-style:normal;fill:#000000;stroke:none;">Salle Visio</text></g><g transform="matrix(1,0,0,1,130,53.615)"><text transform="matrix(1,0,0,1,0,9.62)" style="font-family:'Open Sans';font-weight:400;font-size:9px;font-style:normal;fill:#000000;stroke:none;">Toilette</text></g><g transform="matrix(1,0,0,1,130,75.718)"><text transform="matrix(1,0,0,1,0,9.62)" style="font-family:'Open Sans';font-weight:400;font-size:9px;font-style:normal;fill:#000000;stroke:none;">Bubble</text></g></g></svg>